<svg width="300" height="56" viewBox="0 0 300 56" fill="none" xmlns="http://www.w3.org/2000/svg">
<path d="M139.341 6.65021C140.031 6.89205 140.573 7.27209 140.964 7.79032C141.356 8.29703 141.552 8.91316 141.552 9.63868C141.552 10.6982 141.126 11.5158 140.273 12.0916C139.421 12.6675 138.189 12.9554 136.577 12.9554H130.047V0.863281H136.231C137.774 0.863281 138.949 1.15119 139.755 1.727C140.561 2.2913 140.964 3.05713 140.964 4.0245C140.964 4.60031 140.82 5.11854 140.532 5.57919C140.256 6.02833 139.859 6.38533 139.341 6.65021ZM133.433 3.33352V5.66557H135.782C136.934 5.66557 137.509 5.27401 137.509 4.49091C137.509 3.71932 136.934 3.33352 135.782 3.33352H133.433ZM136.3 10.4851C137.498 10.4851 138.097 10.0763 138.097 9.25864C138.097 8.44099 137.498 8.03216 136.3 8.03216H133.433V10.4851H136.3Z" fill="white"/>
<path d="M152.928 9.74233H151.062V12.9554H147.642V0.863281H153.17C154.264 0.863281 155.214 1.04754 156.02 1.41606C156.826 1.77307 157.448 2.2913 157.886 2.97076C158.323 3.6387 158.542 4.42757 158.542 5.33735C158.542 6.21259 158.335 6.97842 157.92 7.63485C157.517 8.27976 156.935 8.78648 156.175 9.155L158.784 12.9554H155.122L152.928 9.74233ZM155.087 5.33735C155.087 4.77306 154.909 4.33544 154.552 4.0245C154.195 3.71356 153.665 3.55809 152.962 3.55809H151.062V7.09934H152.962C153.665 7.09934 154.195 6.94963 154.552 6.65021C154.909 6.33927 155.087 5.90165 155.087 5.33735Z" fill="white"/>
<path d="M171.057 8.61949V12.9554H167.636V8.56767L163.024 0.863281H166.634L169.502 5.66557L172.37 0.863281H175.686L171.057 8.61949Z" fill="white"/>
<path d="M188.217 10.606H183.104L182.154 12.9554H178.665L184.002 0.863281H187.371L192.726 12.9554H189.167L188.217 10.606ZM187.215 8.08398L185.661 4.21452L184.106 8.08398H187.215Z" fill="white"/>
<path d="M209.519 0.863281V12.9554H206.703L201.365 6.51201V12.9554H198.014V0.863281H200.83L206.168 7.30664V0.863281H209.519Z" fill="white"/>
<path d="M218.824 3.57536H215.11V0.863281H225.941V3.57536H222.244V12.9554H218.824V3.57536Z" fill="white"/>
<path d="M130.047 21.7365H133.467V31.1165H139.237V33.8286H130.047V21.7365Z" fill="white"/>
<path d="M150.37 34.0704C148.574 34.0704 147.175 33.581 146.173 32.6021C145.182 31.6232 144.687 30.2355 144.687 28.439V21.7365H148.108V28.3353C148.108 30.2701 148.873 31.2374 150.405 31.2374C151.925 31.2374 152.685 30.2701 152.685 28.3353V21.7365H156.054V28.439C156.054 30.2355 155.553 31.6232 154.551 32.6021C153.56 33.581 152.167 34.0704 150.37 34.0704Z" fill="white"/>
<path d="M168.718 34.0704C167.451 34.0704 166.311 33.8056 165.298 33.2758C164.296 32.7346 163.507 31.986 162.931 31.0302C162.355 30.0743 162.068 28.9918 162.068 27.7826C162.068 26.5734 162.355 25.4908 162.931 24.535C163.507 23.5791 164.296 22.8363 165.298 22.3066C166.311 21.7653 167.451 21.4947 168.718 21.4947C169.824 21.4947 170.82 21.6905 171.707 22.082C172.593 22.4736 173.33 23.0379 173.918 23.7749L171.741 25.7442C170.958 24.7999 170.008 24.3277 168.891 24.3277C168.235 24.3277 167.647 24.4716 167.129 24.7595C166.622 25.0474 166.225 25.4563 165.937 25.986C165.661 26.5043 165.522 27.1031 165.522 27.7826C165.522 28.462 165.661 29.0666 165.937 29.5964C166.225 30.1146 166.622 30.5177 167.129 30.8056C167.647 31.0935 168.235 31.2374 168.891 31.2374C170.008 31.2374 170.958 30.7653 171.741 29.8209L173.918 31.7902C173.33 32.5273 172.593 33.0916 171.707 33.4831C170.82 33.8747 169.824 34.0704 168.718 34.0704Z" fill="white"/>
<path d="M189.47 31.1856V33.8286H179.761V21.7365H189.245V24.3795H183.147V26.4179H188.52V28.9745H183.147V31.1856H189.47Z" fill="white"/>
<path d="M200.972 30.6156H199.107V33.8286H195.686V21.7365H201.214C202.308 21.7365 203.258 21.9208 204.064 22.2893C204.87 22.6463 205.492 23.1645 205.93 23.844C206.368 24.5119 206.586 25.3008 206.586 26.2106C206.586 27.0858 206.379 27.8517 205.965 28.5081C205.561 29.153 204.98 29.6597 204.22 30.0282L206.828 33.8286H203.166L200.972 30.6156ZM203.132 26.2106C203.132 25.6463 202.953 25.2087 202.596 24.8977C202.239 24.5868 201.709 24.4313 201.007 24.4313H199.107V27.9726H201.007C201.709 27.9726 202.239 27.8229 202.596 27.5234C202.953 27.2125 203.132 26.7749 203.132 26.2106Z" fill="white"/>
<path d="M218.89 34.0704C217.612 34.0704 216.46 33.7998 215.435 33.2586C214.422 32.7173 213.621 31.9687 213.034 31.0129C212.458 30.057 212.17 28.9803 212.17 27.7826C212.17 26.5849 212.458 25.5081 213.034 24.5523C213.621 23.5964 214.422 22.8478 215.435 22.3066C216.46 21.7653 217.612 21.4947 218.89 21.4947C220.168 21.4947 221.314 21.7653 222.327 22.3066C223.352 22.8478 224.153 23.5964 224.729 24.5523C225.316 25.5081 225.61 26.5849 225.61 27.7826C225.61 28.9803 225.316 30.057 224.729 31.0129C224.153 31.9687 223.352 32.7173 222.327 33.2586C221.314 33.7998 220.168 34.0704 218.89 34.0704ZM218.89 31.2374C219.5 31.2374 220.053 31.0935 220.548 30.8056C221.043 30.5177 221.435 30.1146 221.723 29.5964C222.011 29.0666 222.155 28.462 222.155 27.7826C222.155 27.1031 222.011 26.5043 221.723 25.986C221.435 25.4563 221.043 25.0474 220.548 24.7595C220.053 24.4716 219.5 24.3277 218.89 24.3277C218.279 24.3277 217.727 24.4716 217.231 24.7595C216.736 25.0474 216.345 25.4563 216.057 25.986C215.769 26.5043 215.625 27.1031 215.625 27.7826C215.625 28.462 215.769 29.0666 216.057 29.5964C216.345 30.1146 216.736 30.5177 217.231 30.8056C217.727 31.0935 218.279 31.2374 218.89 31.2374Z" fill="white"/>
<path d="M139.755 52.0589V54.7018H130.047V42.6098H139.531V45.2527H133.433V47.2911H138.805V49.8477H133.433V52.0589H139.755Z" fill="white"/>
<path d="M158.068 42.6098L152.886 54.7018H149.517L144.352 42.6098H148.049L151.331 50.4869L154.682 42.6098H158.068Z" fill="white"/>
<path d="M170.774 52.3525H165.661L164.711 54.7018H161.222L166.559 42.6098H169.928L175.283 54.7018H171.724L170.774 52.3525ZM169.772 49.8305L168.218 45.961L166.663 49.8305H169.772Z" fill="white"/>
<path d="M192.076 42.6098V54.7018H189.26L183.922 48.2585V54.7018H180.571V42.6098H183.387L188.725 49.0531V42.6098H192.076Z" fill="white"/>
<path d="M206.909 48.3967H209.932V53.4063C209.241 53.9015 208.446 54.2815 207.548 54.5464C206.65 54.8113 205.751 54.9437 204.853 54.9437C203.586 54.9437 202.446 54.6788 201.433 54.1491C200.419 53.6078 199.625 52.8592 199.049 51.9034C198.473 50.9475 198.185 49.865 198.185 48.6558C198.185 47.4466 198.473 46.3641 199.049 45.4082C199.625 44.4524 200.425 43.7096 201.45 43.1798C202.475 42.6386 203.632 42.3679 204.922 42.3679C206.051 42.3679 207.064 42.5579 207.963 42.938C208.861 43.318 209.609 43.865 210.208 44.579L208.032 46.5483C207.214 45.6501 206.235 45.2009 205.095 45.2009C204.059 45.2009 203.224 45.5176 202.59 46.151C201.957 46.7729 201.64 47.6078 201.64 48.6558C201.64 49.3237 201.784 49.9226 202.072 50.4523C202.36 50.9706 202.763 51.3794 203.281 51.6788C203.799 51.9667 204.393 52.1107 205.06 52.1107C205.717 52.1107 206.333 51.9783 206.909 51.7134V48.3967Z" fill="white"/>
<path d="M226.127 52.0589V54.7018H216.419V42.6098H225.903V45.2527H219.805V47.2911H225.177V49.8477H219.805V52.0589H226.127Z" fill="white"/>
<path d="M232.344 42.6098H235.764V51.9898H241.534V54.7018H232.344V42.6098Z" fill="white"/>
<path d="M247.206 42.6098H250.626V54.7018H247.206V42.6098Z" fill="white"/>
<path d="M261.628 54.9437C260.649 54.9437 259.699 54.8228 258.777 54.5809C257.856 54.3391 257.108 54.0166 256.532 53.6136L257.655 51.0915C258.196 51.4485 258.823 51.7364 259.537 51.9552C260.251 52.174 260.954 52.2834 261.645 52.2834C262.958 52.2834 263.614 51.9552 263.614 51.2988C263.614 50.9533 263.424 50.6999 263.044 50.5387C262.676 50.366 262.077 50.1875 261.248 50.0032C260.338 49.8074 259.578 49.6001 258.967 49.3813C258.357 49.151 257.833 48.7882 257.395 48.293C256.958 47.7978 256.739 47.1299 256.739 46.2892C256.739 45.5522 256.941 44.89 257.344 44.3027C257.747 43.7038 258.346 43.2316 259.14 42.8862C259.946 42.5407 260.931 42.3679 262.094 42.3679C262.889 42.3679 263.672 42.4601 264.443 42.6443C265.215 42.8171 265.894 43.0762 266.482 43.4217L265.428 45.961C264.276 45.3391 263.159 45.0282 262.077 45.0282C261.397 45.0282 260.902 45.1318 260.591 45.3391C260.28 45.5349 260.125 45.794 260.125 46.1165C260.125 46.4389 260.309 46.6808 260.678 46.842C261.046 47.0032 261.639 47.1702 262.457 47.343C263.378 47.5387 264.138 47.7518 264.737 47.9821C265.347 48.2009 265.871 48.5579 266.309 49.0531C266.758 49.5368 266.983 50.199 266.983 51.0397C266.983 51.7652 266.781 52.4216 266.378 53.009C265.975 53.5963 265.37 54.0685 264.564 54.4255C263.758 54.7709 262.779 54.9437 261.628 54.9437Z" fill="white"/>
<path d="M275.286 45.3218H271.572V42.6098H282.404V45.3218H278.707V54.7018H275.286V45.3218Z" fill="white"/>
<path d="M295.491 52.3525H290.378L289.427 54.7018H285.938L291.276 42.6098H294.644L299.999 54.7018H296.441L295.491 52.3525ZM294.489 49.8305L292.934 45.961L291.379 49.8305H294.489Z" fill="white"/>
<path fill-rule="evenodd" clip-rule="evenodd" d="M119.906 0H0V55.4221H119.906V0ZM59.2943 6.4779H49.0166V32.6417C48.7228 31.6128 48.2513 30.6823 47.602 29.8502C46.4161 28.2955 44.7766 27.1554 42.6837 26.4298C44.2534 25.6352 45.4568 24.5642 46.294 23.2168C47.166 21.8348 47.602 20.2801 47.602 18.5527C47.602 15.6506 46.3812 13.3531 43.9395 11.6602C41.4977 9.93277 37.9398 9.06905 33.2656 9.06905H14.5341V45.3453H34.3121C39.1955 45.3453 42.9279 44.4816 45.5091 42.7541C47.2985 41.5566 48.4677 40.0105 49.0166 38.1156V42.4662H76.2681V48.9442H105.673V41.0153H86.5233V34.3819H102.796V26.7121H86.5233V20.5969H104.993V12.668H76.2681V34.3946H59.2943V6.4779ZM24.7893 23.4759V16.4798H31.9052C35.3934 16.4798 37.1375 17.6372 37.1375 19.9519C37.1375 22.3012 35.3934 23.4759 31.9052 23.4759H24.7893ZM38.9165 34.2551C38.9165 36.7081 37.1026 37.9346 33.4749 37.9346H24.7893V30.5757H33.4749C37.1026 30.5757 38.9165 31.8022 38.9165 34.2551Z" fill="white"/>
</svg>
