<svg width="491" height="44" viewBox="0 0 491 44" fill="none" xmlns="http://www.w3.org/2000/svg">
<path d="M190.845 17.054C189.669 17.054 188.595 16.772 187.623 16.208C186.663 15.644 185.901 14.876 185.337 13.904C184.785 12.932 184.509 11.864 184.509 10.7C184.509 9.536 184.785 8.468 185.337 7.496C185.901 6.524 186.669 5.756 187.641 5.192C188.613 4.628 189.693 4.346 190.881 4.346C192.069 4.346 193.143 4.622 194.103 5.174C195.075 5.726 195.837 6.488 196.389 7.46C196.941 8.42 197.217 9.488 197.217 10.664C197.217 11.84 196.935 12.92 196.371 13.904C195.807 14.876 195.039 15.644 194.067 16.208C193.095 16.772 192.021 17.054 190.845 17.054ZM190.845 16.064C191.841 16.064 192.741 15.824 193.545 15.344C194.361 14.864 195.003 14.216 195.471 13.4C195.939 12.572 196.173 11.66 196.173 10.664C196.173 9.668 195.945 8.768 195.489 7.964C195.033 7.148 194.403 6.506 193.599 6.038C192.795 5.57 191.889 5.336 190.881 5.336C189.873 5.336 188.961 5.576 188.145 6.056C187.329 6.524 186.687 7.166 186.219 7.982C185.763 8.798 185.535 9.704 185.535 10.7C185.535 11.696 185.763 12.602 186.219 13.418C186.687 14.234 187.323 14.882 188.127 15.362C188.943 15.83 189.849 16.064 190.845 16.064ZM191.043 14.372C190.311 14.372 189.657 14.216 189.081 13.904C188.505 13.592 188.055 13.16 187.731 12.608C187.407 12.044 187.245 11.408 187.245 10.7C187.245 9.992 187.407 9.362 187.731 8.81C188.055 8.246 188.505 7.808 189.081 7.496C189.657 7.184 190.311 7.028 191.043 7.028C191.715 7.028 192.309 7.172 192.825 7.46C193.353 7.736 193.761 8.114 194.049 8.594L192.735 9.458C192.363 8.858 191.793 8.558 191.025 8.558C190.437 8.558 189.945 8.756 189.549 9.152C189.165 9.536 188.973 10.052 188.973 10.7C188.973 11.348 189.165 11.87 189.549 12.266C189.945 12.65 190.437 12.842 191.025 12.842C191.793 12.842 192.363 12.542 192.735 11.942L194.049 12.77C193.761 13.274 193.353 13.67 192.825 13.958C192.309 14.234 191.715 14.372 191.043 14.372ZM207.75 15.02V17H198.462V15.434L203.466 10.682C204.03 10.142 204.408 9.674 204.6 9.278C204.804 8.87 204.906 8.468 204.906 8.072C204.906 7.484 204.708 7.034 204.312 6.722C203.916 6.41 203.334 6.254 202.566 6.254C201.282 6.254 200.298 6.692 199.614 7.568L197.976 6.308C198.468 5.648 199.128 5.138 199.956 4.778C200.796 4.406 201.732 4.22 202.764 4.22C204.132 4.22 205.224 4.544 206.04 5.192C206.856 5.84 207.264 6.722 207.264 7.838C207.264 8.522 207.12 9.164 206.832 9.764C206.544 10.364 205.992 11.048 205.176 11.816L201.81 15.02H207.75ZM214.304 17.18C213.296 17.18 212.396 16.928 211.604 16.424C210.812 15.908 210.188 15.164 209.732 14.192C209.276 13.208 209.048 12.044 209.048 10.7C209.048 9.356 209.276 8.198 209.732 7.226C210.188 6.242 210.812 5.498 211.604 4.994C212.396 4.478 213.296 4.22 214.304 4.22C215.312 4.22 216.212 4.478 217.004 4.994C217.808 5.498 218.438 6.242 218.894 7.226C219.35 8.198 219.578 9.356 219.578 10.7C219.578 12.044 219.35 13.208 218.894 14.192C218.438 15.164 217.808 15.908 217.004 16.424C216.212 16.928 215.312 17.18 214.304 17.18ZM214.304 15.146C215.204 15.146 215.912 14.774 216.428 14.03C216.956 13.286 217.22 12.176 217.22 10.7C217.22 9.224 216.956 8.114 216.428 7.37C215.912 6.626 215.204 6.254 214.304 6.254C213.416 6.254 212.708 6.626 212.18 7.37C211.664 8.114 211.406 9.224 211.406 10.7C211.406 12.176 211.664 13.286 212.18 14.03C212.708 14.774 213.416 15.146 214.304 15.146ZM230.197 15.02V17H220.909V15.434L225.913 10.682C226.477 10.142 226.855 9.674 227.047 9.278C227.251 8.87 227.353 8.468 227.353 8.072C227.353 7.484 227.155 7.034 226.759 6.722C226.363 6.41 225.781 6.254 225.013 6.254C223.729 6.254 222.745 6.692 222.061 7.568L220.423 6.308C220.915 5.648 221.575 5.138 222.403 4.778C223.243 4.406 224.179 4.22 225.211 4.22C226.579 4.22 227.671 4.544 228.487 5.192C229.303 5.84 229.711 6.722 229.711 7.838C229.711 8.522 229.567 9.164 229.279 9.764C228.991 10.364 228.439 11.048 227.623 11.816L224.257 15.02H230.197ZM236.751 17.18C235.743 17.18 234.843 16.928 234.051 16.424C233.259 15.908 232.635 15.164 232.179 14.192C231.723 13.208 231.495 12.044 231.495 10.7C231.495 9.356 231.723 8.198 232.179 7.226C232.635 6.242 233.259 5.498 234.051 4.994C234.843 4.478 235.743 4.22 236.751 4.22C237.759 4.22 238.659 4.478 239.451 4.994C240.255 5.498 240.885 6.242 241.341 7.226C241.797 8.198 242.025 9.356 242.025 10.7C242.025 12.044 241.797 13.208 241.341 14.192C240.885 15.164 240.255 15.908 239.451 16.424C238.659 16.928 237.759 17.18 236.751 17.18ZM236.751 15.146C237.651 15.146 238.359 14.774 238.875 14.03C239.403 13.286 239.667 12.176 239.667 10.7C239.667 9.224 239.403 8.114 238.875 7.37C238.359 6.626 237.651 6.254 236.751 6.254C235.863 6.254 235.155 6.626 234.627 7.37C234.111 8.114 233.853 9.224 233.853 10.7C233.853 12.176 234.111 13.286 234.627 14.03C235.155 14.774 235.863 15.146 236.751 15.146ZM258.409 10.448C259.105 10.676 259.657 11.06 260.065 11.6C260.473 12.128 260.677 12.788 260.677 13.58C260.677 14.672 260.257 15.518 259.417 16.118C258.577 16.706 257.353 17 255.745 17H249.481V4.4H255.385C256.873 4.4 258.019 4.694 258.823 5.282C259.627 5.858 260.029 6.656 260.029 7.676C260.029 8.3 259.885 8.852 259.597 9.332C259.309 9.812 258.913 10.184 258.409 10.448ZM251.821 6.236V9.71H255.133C255.949 9.71 256.573 9.566 257.005 9.278C257.449 8.978 257.671 8.546 257.671 7.982C257.671 7.406 257.449 6.974 257.005 6.686C256.573 6.386 255.949 6.236 255.133 6.236H251.821ZM255.601 15.164C257.413 15.164 258.319 14.558 258.319 13.346C258.319 12.134 257.413 11.528 255.601 11.528H251.821V15.164H255.601ZM265.1 8.792C265.748 7.784 266.888 7.28 268.52 7.28V9.422C268.328 9.386 268.154 9.368 267.998 9.368C267.122 9.368 266.438 9.626 265.946 10.142C265.454 10.646 265.208 11.378 265.208 12.338V17H262.958V7.388H265.1V8.792ZM279.781 7.388L275.281 17.774C274.861 18.818 274.351 19.55 273.751 19.97C273.151 20.402 272.425 20.618 271.573 20.618C271.093 20.618 270.619 20.54 270.151 20.384C269.683 20.228 269.299 20.012 268.999 19.736L269.899 18.08C270.115 18.284 270.367 18.446 270.655 18.566C270.955 18.686 271.255 18.746 271.555 18.746C271.951 18.746 272.275 18.644 272.527 18.44C272.791 18.236 273.031 17.894 273.247 17.414L273.409 17.036L269.215 7.388H271.555L274.579 14.498L277.621 7.388H279.781ZM284.56 7.28C285.976 7.28 287.056 7.622 287.8 8.306C288.556 8.978 288.934 9.998 288.934 11.366V17H286.81V15.83C286.534 16.25 286.138 16.574 285.622 16.802C285.118 17.018 284.506 17.126 283.786 17.126C283.066 17.126 282.436 17.006 281.896 16.766C281.356 16.514 280.936 16.172 280.636 15.74C280.348 15.296 280.204 14.798 280.204 14.246C280.204 13.382 280.522 12.692 281.158 12.176C281.806 11.648 282.82 11.384 284.2 11.384H286.684V11.24C286.684 10.568 286.48 10.052 286.072 9.692C285.676 9.332 285.082 9.152 284.29 9.152C283.75 9.152 283.216 9.236 282.688 9.404C282.172 9.572 281.734 9.806 281.374 10.106L280.492 8.468C280.996 8.084 281.602 7.79 282.31 7.586C283.018 7.382 283.768 7.28 284.56 7.28ZM284.254 15.488C284.818 15.488 285.316 15.362 285.748 15.11C286.192 14.846 286.504 14.474 286.684 13.994V12.878H284.362C283.066 12.878 282.418 13.304 282.418 14.156C282.418 14.564 282.58 14.888 282.904 15.128C283.228 15.368 283.678 15.488 284.254 15.488ZM297.276 7.28C298.488 7.28 299.46 7.634 300.192 8.342C300.924 9.05 301.29 10.1 301.29 11.492V17H299.04V11.78C299.04 10.94 298.842 10.31 298.446 9.89C298.05 9.458 297.486 9.242 296.754 9.242C295.926 9.242 295.272 9.494 294.792 9.998C294.312 10.49 294.072 11.204 294.072 12.14V17H291.822V7.388H293.964V8.63C294.336 8.186 294.804 7.85 295.368 7.622C295.932 7.394 296.568 7.28 297.276 7.28ZM309.922 16.478C309.658 16.694 309.334 16.856 308.95 16.964C308.578 17.072 308.182 17.126 307.762 17.126C306.706 17.126 305.89 16.85 305.314 16.298C304.738 15.746 304.45 14.942 304.45 13.886V9.26H302.866V7.46H304.45V5.264H306.7V7.46H309.274V9.26H306.7V13.832C306.7 14.3 306.814 14.66 307.042 14.912C307.27 15.152 307.6 15.272 308.032 15.272C308.536 15.272 308.956 15.14 309.292 14.876L309.922 16.478ZM316.963 4.4H319.303V15.02H325.891V17H316.963V4.4ZM336.741 7.388V17H334.599V15.776C334.239 16.208 333.789 16.544 333.249 16.784C332.709 17.012 332.127 17.126 331.503 17.126C330.219 17.126 329.205 16.772 328.461 16.064C327.729 15.344 327.363 14.282 327.363 12.878V7.388H329.613V12.572C329.613 13.436 329.805 14.084 330.189 14.516C330.585 14.936 331.143 15.146 331.863 15.146C332.667 15.146 333.303 14.9 333.771 14.408C334.251 13.904 334.491 13.184 334.491 12.248V7.388H336.741ZM344.097 17.126C343.101 17.126 342.207 16.916 341.415 16.496C340.623 16.076 340.005 15.494 339.561 14.75C339.117 13.994 338.895 13.142 338.895 12.194C338.895 11.246 339.117 10.4 339.561 9.656C340.005 8.912 340.617 8.33 341.397 7.91C342.189 7.49 343.089 7.28 344.097 7.28C345.045 7.28 345.873 7.472 346.581 7.856C347.301 8.24 347.841 8.792 348.201 9.512L346.473 10.52C346.197 10.076 345.849 9.746 345.429 9.53C345.021 9.302 344.571 9.188 344.079 9.188C343.239 9.188 342.543 9.464 341.991 10.016C341.439 10.556 341.163 11.282 341.163 12.194C341.163 13.106 341.433 13.838 341.973 14.39C342.525 14.93 343.227 15.2 344.079 15.2C344.571 15.2 345.021 15.092 345.429 14.876C345.849 14.648 346.197 14.312 346.473 13.868L348.201 14.876C347.829 15.596 347.283 16.154 346.563 16.55C345.855 16.934 345.033 17.126 344.097 17.126ZM359.041 12.248C359.041 12.404 359.029 12.626 359.005 12.914H351.463C351.595 13.622 351.937 14.186 352.489 14.606C353.053 15.014 353.749 15.218 354.577 15.218C355.633 15.218 356.503 14.87 357.187 14.174L358.393 15.56C357.961 16.076 357.415 16.466 356.755 16.73C356.095 16.994 355.351 17.126 354.523 17.126C353.467 17.126 352.537 16.916 351.733 16.496C350.929 16.076 350.305 15.494 349.861 14.75C349.429 13.994 349.213 13.142 349.213 12.194C349.213 11.258 349.423 10.418 349.843 9.674C350.275 8.918 350.869 8.33 351.625 7.91C352.381 7.49 353.233 7.28 354.181 7.28C355.117 7.28 355.951 7.49 356.683 7.91C357.427 8.318 358.003 8.9 358.411 9.656C358.831 10.4 359.041 11.264 359.041 12.248ZM354.181 9.08C353.461 9.08 352.849 9.296 352.345 9.728C351.853 10.148 351.553 10.712 351.445 11.42H356.899C356.803 10.724 356.509 10.16 356.017 9.728C355.525 9.296 354.913 9.08 354.181 9.08ZM363.345 8.792C363.993 7.784 365.133 7.28 366.765 7.28V9.422C366.573 9.386 366.399 9.368 366.243 9.368C365.367 9.368 364.683 9.626 364.191 10.142C363.699 10.646 363.453 11.378 363.453 12.338V17H361.203V7.388H363.345V8.792ZM372.905 17.126C371.933 17.126 371.057 16.916 370.277 16.496C369.497 16.076 368.885 15.494 368.441 14.75C368.009 13.994 367.793 13.142 367.793 12.194C367.793 11.246 368.009 10.4 368.441 9.656C368.885 8.912 369.497 8.33 370.277 7.91C371.057 7.49 371.933 7.28 372.905 7.28C373.889 7.28 374.771 7.49 375.551 7.91C376.331 8.33 376.937 8.912 377.369 9.656C377.813 10.4 378.035 11.246 378.035 12.194C378.035 13.142 377.813 13.994 377.369 14.75C376.937 15.494 376.331 16.076 375.551 16.496C374.771 16.916 373.889 17.126 372.905 17.126ZM372.905 15.2C373.733 15.2 374.417 14.924 374.957 14.372C375.497 13.82 375.767 13.094 375.767 12.194C375.767 11.294 375.497 10.568 374.957 10.016C374.417 9.464 373.733 9.188 372.905 9.188C372.077 9.188 371.393 9.464 370.853 10.016C370.325 10.568 370.061 11.294 370.061 12.194C370.061 13.094 370.325 13.82 370.853 14.372C371.393 14.924 372.077 15.2 372.905 15.2ZM394.828 15.038V17H385.378V4.4H394.576V6.362H387.718V9.638H393.802V11.564H387.718V15.038H394.828ZM406.097 7.388L401.975 17H399.653L395.531 7.388H397.871L400.859 14.516L403.937 7.388H406.097ZM410.877 7.28C412.293 7.28 413.373 7.622 414.117 8.306C414.873 8.978 415.251 9.998 415.251 11.366V17H413.127V15.83C412.851 16.25 412.455 16.574 411.939 16.802C411.435 17.018 410.823 17.126 410.103 17.126C409.383 17.126 408.753 17.006 408.213 16.766C407.673 16.514 407.253 16.172 406.953 15.74C406.665 15.296 406.521 14.798 406.521 14.246C406.521 13.382 406.839 12.692 407.475 12.176C408.123 11.648 409.137 11.384 410.517 11.384H413.001V11.24C413.001 10.568 412.797 10.052 412.389 9.692C411.993 9.332 411.399 9.152 410.607 9.152C410.067 9.152 409.533 9.236 409.005 9.404C408.489 9.572 408.051 9.806 407.691 10.106L406.809 8.468C407.313 8.084 407.919 7.79 408.627 7.586C409.335 7.382 410.085 7.28 410.877 7.28ZM410.571 15.488C411.135 15.488 411.633 15.362 412.065 15.11C412.509 14.846 412.821 14.474 413.001 13.994V12.878H410.679C409.383 12.878 408.735 13.304 408.735 14.156C408.735 14.564 408.897 14.888 409.221 15.128C409.545 15.368 409.995 15.488 410.571 15.488ZM423.592 7.28C424.804 7.28 425.776 7.634 426.508 8.342C427.24 9.05 427.606 10.1 427.606 11.492V17H425.356V11.78C425.356 10.94 425.158 10.31 424.762 9.89C424.366 9.458 423.802 9.242 423.07 9.242C422.242 9.242 421.588 9.494 421.108 9.998C420.628 10.49 420.388 11.204 420.388 12.14V17H418.138V7.388H420.28V8.63C420.652 8.186 421.12 7.85 421.684 7.622C422.248 7.394 422.884 7.28 423.592 7.28ZM440.088 7.388V15.542C440.088 18.926 438.36 20.618 434.904 20.618C433.98 20.618 433.104 20.498 432.276 20.258C431.448 20.03 430.764 19.694 430.224 19.25L431.232 17.558C431.652 17.906 432.18 18.182 432.816 18.386C433.464 18.602 434.118 18.71 434.778 18.71C435.834 18.71 436.608 18.47 437.1 17.99C437.592 17.51 437.838 16.778 437.838 15.794V15.29C437.454 15.71 436.986 16.028 436.434 16.244C435.882 16.46 435.276 16.568 434.616 16.568C433.704 16.568 432.876 16.376 432.132 15.992C431.4 15.596 430.818 15.044 430.386 14.336C429.966 13.628 429.756 12.818 429.756 11.906C429.756 10.994 429.966 10.19 430.386 9.494C430.818 8.786 431.4 8.24 432.132 7.856C432.876 7.472 433.704 7.28 434.616 7.28C435.312 7.28 435.942 7.394 436.506 7.622C437.082 7.85 437.562 8.198 437.946 8.666V7.388H440.088ZM434.958 14.66C435.81 14.66 436.506 14.408 437.046 13.904C437.598 13.388 437.874 12.722 437.874 11.906C437.874 11.102 437.598 10.448 437.046 9.944C436.506 9.44 435.81 9.188 434.958 9.188C434.094 9.188 433.386 9.44 432.834 9.944C432.294 10.448 432.024 11.102 432.024 11.906C432.024 12.722 432.294 13.388 432.834 13.904C433.386 14.408 434.094 14.66 434.958 14.66ZM452.082 12.248C452.082 12.404 452.07 12.626 452.046 12.914H444.504C444.636 13.622 444.978 14.186 445.53 14.606C446.094 15.014 446.79 15.218 447.618 15.218C448.674 15.218 449.544 14.87 450.228 14.174L451.434 15.56C451.002 16.076 450.456 16.466 449.796 16.73C449.136 16.994 448.392 17.126 447.564 17.126C446.508 17.126 445.578 16.916 444.774 16.496C443.97 16.076 443.346 15.494 442.902 14.75C442.47 13.994 442.254 13.142 442.254 12.194C442.254 11.258 442.464 10.418 442.884 9.674C443.316 8.918 443.91 8.33 444.666 7.91C445.422 7.49 446.274 7.28 447.222 7.28C448.158 7.28 448.992 7.49 449.724 7.91C450.468 8.318 451.044 8.9 451.452 9.656C451.872 10.4 452.082 11.264 452.082 12.248ZM447.222 9.08C446.502 9.08 445.89 9.296 445.386 9.728C444.894 10.148 444.594 10.712 444.486 11.42H449.94C449.844 10.724 449.55 10.16 449.058 9.728C448.566 9.296 447.954 9.08 447.222 9.08ZM454.244 3.644H456.494V17H454.244V3.644ZM459.447 7.388H461.697V17H459.447V7.388ZM460.581 5.804C460.173 5.804 459.831 5.678 459.555 5.426C459.279 5.162 459.141 4.838 459.141 4.454C459.141 4.07 459.279 3.752 459.555 3.5C459.831 3.236 460.173 3.104 460.581 3.104C460.989 3.104 461.331 3.23 461.607 3.482C461.883 3.722 462.021 4.028 462.021 4.4C462.021 4.796 461.883 5.132 461.607 5.408C461.343 5.672 461.001 5.804 460.581 5.804ZM467.62 17.126C466.84 17.126 466.078 17.024 465.334 16.82C464.59 16.616 463.996 16.358 463.552 16.046L464.416 14.336C464.848 14.624 465.364 14.858 465.964 15.038C466.576 15.206 467.176 15.29 467.764 15.29C469.108 15.29 469.78 14.936 469.78 14.228C469.78 13.892 469.606 13.658 469.258 13.526C468.922 13.394 468.376 13.268 467.62 13.148C466.828 13.028 466.18 12.89 465.676 12.734C465.184 12.578 464.752 12.308 464.38 11.924C464.02 11.528 463.84 10.982 463.84 10.286C463.84 9.374 464.218 8.648 464.974 8.108C465.742 7.556 466.774 7.28 468.07 7.28C468.73 7.28 469.39 7.358 470.05 7.514C470.71 7.658 471.25 7.856 471.67 8.108L470.806 9.818C469.99 9.338 469.072 9.098 468.052 9.098C467.392 9.098 466.888 9.2 466.54 9.404C466.204 9.596 466.036 9.854 466.036 10.178C466.036 10.538 466.216 10.796 466.576 10.952C466.948 11.096 467.518 11.234 468.286 11.366C469.054 11.486 469.684 11.624 470.176 11.78C470.668 11.936 471.088 12.2 471.436 12.572C471.796 12.944 471.976 13.472 471.976 14.156C471.976 15.056 471.586 15.776 470.806 16.316C470.026 16.856 468.964 17.126 467.62 17.126ZM479.692 16.478C479.428 16.694 479.104 16.856 478.72 16.964C478.348 17.072 477.952 17.126 477.532 17.126C476.476 17.126 475.66 16.85 475.083 16.298C474.508 15.746 474.22 14.942 474.22 13.886V9.26H472.636V7.46H474.22V5.264H476.47V7.46H479.044V9.26H476.47V13.832C476.47 14.3 476.584 14.66 476.812 14.912C477.04 15.152 477.37 15.272 477.802 15.272C478.306 15.272 478.726 15.14 479.062 14.876L479.692 16.478ZM485.214 7.28C486.63 7.28 487.71 7.622 488.454 8.306C489.21 8.978 489.588 9.998 489.588 11.366V17H487.464V15.83C487.188 16.25 486.792 16.574 486.276 16.802C485.772 17.018 485.16 17.126 484.44 17.126C483.72 17.126 483.09 17.006 482.55 16.766C482.01 16.514 481.59 16.172 481.29 15.74C481.002 15.296 480.858 14.798 480.858 14.246C480.858 13.382 481.176 12.692 481.812 12.176C482.46 11.648 483.474 11.384 484.854 11.384H487.338V11.24C487.338 10.568 487.134 10.052 486.726 9.692C486.33 9.332 485.736 9.152 484.944 9.152C484.404 9.152 483.87 9.236 483.342 9.404C482.826 9.572 482.388 9.806 482.028 10.106L481.146 8.468C481.65 8.084 482.256 7.79 482.964 7.586C483.672 7.382 484.422 7.28 485.214 7.28ZM484.908 15.488C485.472 15.488 485.97 15.362 486.402 15.11C486.846 14.846 487.158 14.474 487.338 13.994V12.878H485.016C483.72 12.878 483.072 13.304 483.072 14.156C483.072 14.564 483.234 14.888 483.558 15.128C483.882 15.368 484.332 15.488 484.908 15.488ZM64.2955 26.4H69.8035C71.1475 26.4 72.3415 26.664 73.3855 27.192C74.4295 27.708 75.2395 28.446 75.8155 29.406C76.3915 30.354 76.6795 31.452 76.6795 32.7C76.6795 33.948 76.3915 35.052 75.8155 36.012C75.2395 36.96 74.4295 37.698 73.3855 38.226C72.3415 38.742 71.1475 39 69.8035 39H64.2955V26.4ZM69.6955 37.02C70.6195 37.02 71.4295 36.846 72.1255 36.498C72.8335 36.138 73.3735 35.634 73.7455 34.986C74.1295 34.326 74.3215 33.564 74.3215 32.7C74.3215 31.836 74.1295 31.08 73.7455 30.432C73.3735 29.772 72.8335 29.268 72.1255 28.92C71.4295 28.56 70.6195 28.38 69.6955 28.38H66.6355V37.02H69.6955ZM87.9866 34.248C87.9866 34.404 87.9746 34.626 87.9506 34.914H80.4086C80.5406 35.622 80.8826 36.186 81.4346 36.606C81.9986 37.014 82.6946 37.218 83.5226 37.218C84.5786 37.218 85.4486 36.87 86.1326 36.174L87.3386 37.56C86.9066 38.076 86.3606 38.466 85.7006 38.73C85.0406 38.994 84.2966 39.126 83.4686 39.126C82.4126 39.126 81.4826 38.916 80.6786 38.496C79.8746 38.076 79.2506 37.494 78.8066 36.75C78.3746 35.994 78.1586 35.142 78.1586 34.194C78.1586 33.258 78.3686 32.418 78.7886 31.674C79.2206 30.918 79.8146 30.33 80.5706 29.91C81.3266 29.49 82.1786 29.28 83.1266 29.28C84.0626 29.28 84.8966 29.49 85.6286 29.91C86.3726 30.318 86.9486 30.9 87.3566 31.656C87.7766 32.4 87.9866 33.264 87.9866 34.248ZM83.1266 31.08C82.4066 31.08 81.7946 31.296 81.2906 31.728C80.7986 32.148 80.4986 32.712 80.3906 33.42H85.8446C85.7486 32.724 85.4546 32.16 84.9626 31.728C84.4706 31.296 83.8586 31.08 83.1266 31.08ZM93.1179 39.126C92.3379 39.126 91.5759 39.024 90.8319 38.82C90.0879 38.616 89.4939 38.358 89.0499 38.046L89.9139 36.336C90.3459 36.624 90.8619 36.858 91.4619 37.038C92.0739 37.206 92.6739 37.29 93.2619 37.29C94.6059 37.29 95.2779 36.936 95.2779 36.228C95.2779 35.892 95.1039 35.658 94.7559 35.526C94.4199 35.394 93.8739 35.268 93.1179 35.148C92.3259 35.028 91.6779 34.89 91.1739 34.734C90.6819 34.578 90.2499 34.308 89.8779 33.924C89.5179 33.528 89.3379 32.982 89.3379 32.286C89.3379 31.374 89.7159 30.648 90.4719 30.108C91.2399 29.556 92.2719 29.28 93.5679 29.28C94.2279 29.28 94.8879 29.358 95.5479 29.514C96.2079 29.658 96.7479 29.856 97.1679 30.108L96.3039 31.818C95.4879 31.338 94.5699 31.098 93.5499 31.098C92.8899 31.098 92.3859 31.2 92.0379 31.404C91.7019 31.596 91.5339 31.854 91.5339 32.178C91.5339 32.538 91.7139 32.796 92.0739 32.952C92.4459 33.096 93.0159 33.234 93.7839 33.366C94.5519 33.486 95.1819 33.624 95.6739 33.78C96.1659 33.936 96.5859 34.2 96.9339 34.572C97.2939 34.944 97.4739 35.472 97.4739 36.156C97.4739 37.056 97.0839 37.776 96.3039 38.316C95.5239 38.856 94.4619 39.126 93.1179 39.126ZM99.4115 29.388H101.662V39H99.4115V29.388ZM100.546 27.804C100.138 27.804 99.7955 27.678 99.5195 27.426C99.2435 27.162 99.1055 26.838 99.1055 26.454C99.1055 26.07 99.2435 25.752 99.5195 25.5C99.7955 25.236 100.138 25.104 100.546 25.104C100.954 25.104 101.296 25.23 101.572 25.482C101.848 25.722 101.986 26.028 101.986 26.4C101.986 26.796 101.848 27.132 101.572 27.408C101.308 27.672 100.966 27.804 100.546 27.804ZM114.155 29.388V37.542C114.155 40.926 112.427 42.618 108.971 42.618C108.047 42.618 107.171 42.498 106.343 42.258C105.515 42.03 104.831 41.694 104.291 41.25L105.299 39.558C105.719 39.906 106.247 40.182 106.883 40.386C107.531 40.602 108.185 40.71 108.845 40.71C109.901 40.71 110.675 40.47 111.167 39.99C111.659 39.51 111.905 38.778 111.905 37.794V37.29C111.521 37.71 111.053 38.028 110.501 38.244C109.949 38.46 109.343 38.568 108.683 38.568C107.771 38.568 106.943 38.376 106.199 37.992C105.467 37.596 104.885 37.044 104.453 36.336C104.033 35.628 103.823 34.818 103.823 33.906C103.823 32.994 104.033 32.19 104.453 31.494C104.885 30.786 105.467 30.24 106.199 29.856C106.943 29.472 107.771 29.28 108.683 29.28C109.379 29.28 110.009 29.394 110.573 29.622C111.149 29.85 111.629 30.198 112.013 30.666V29.388H114.155ZM109.025 36.66C109.877 36.66 110.573 36.408 111.113 35.904C111.665 35.388 111.941 34.722 111.941 33.906C111.941 33.102 111.665 32.448 111.113 31.944C110.573 31.44 109.877 31.188 109.025 31.188C108.161 31.188 107.453 31.44 106.901 31.944C106.361 32.448 106.091 33.102 106.091 33.906C106.091 34.722 106.361 35.388 106.901 35.904C107.453 36.408 108.161 36.66 109.025 36.66ZM122.567 29.28C123.779 29.28 124.751 29.634 125.483 30.342C126.215 31.05 126.581 32.1 126.581 33.492V39H124.331V33.78C124.331 32.94 124.133 32.31 123.737 31.89C123.341 31.458 122.777 31.242 122.045 31.242C121.217 31.242 120.563 31.494 120.083 31.998C119.603 32.49 119.363 33.204 119.363 34.14V39H117.113V29.388H119.255V30.63C119.627 30.186 120.095 29.85 120.659 29.622C121.223 29.394 121.859 29.28 122.567 29.28ZM138.559 34.248C138.559 34.404 138.547 34.626 138.523 34.914H130.981C131.113 35.622 131.455 36.186 132.007 36.606C132.571 37.014 133.267 37.218 134.095 37.218C135.151 37.218 136.021 36.87 136.705 36.174L137.911 37.56C137.479 38.076 136.933 38.466 136.273 38.73C135.613 38.994 134.869 39.126 134.041 39.126C132.985 39.126 132.055 38.916 131.251 38.496C130.447 38.076 129.823 37.494 129.379 36.75C128.947 35.994 128.731 35.142 128.731 34.194C128.731 33.258 128.941 32.418 129.361 31.674C129.793 30.918 130.387 30.33 131.143 29.91C131.899 29.49 132.751 29.28 133.699 29.28C134.635 29.28 135.469 29.49 136.201 29.91C136.945 30.318 137.521 30.9 137.929 31.656C138.349 32.4 138.559 33.264 138.559 34.248ZM133.699 31.08C132.979 31.08 132.367 31.296 131.863 31.728C131.371 32.148 131.071 32.712 130.963 33.42H136.417C136.321 32.724 136.027 32.16 135.535 31.728C135.043 31.296 134.431 31.08 133.699 31.08ZM150.134 25.644V39H147.974V37.758C147.602 38.214 147.14 38.556 146.588 38.784C146.048 39.012 145.448 39.126 144.788 39.126C143.864 39.126 143.03 38.922 142.286 38.514C141.554 38.106 140.978 37.53 140.558 36.786C140.138 36.03 139.928 35.166 139.928 34.194C139.928 33.222 140.138 32.364 140.558 31.62C140.978 30.876 141.554 30.3 142.286 29.892C143.03 29.484 143.864 29.28 144.788 29.28C145.424 29.28 146.006 29.388 146.534 29.604C147.062 29.82 147.512 30.144 147.884 30.576V25.644H150.134ZM145.058 37.2C145.598 37.2 146.084 37.08 146.516 36.84C146.948 36.588 147.29 36.234 147.542 35.778C147.794 35.322 147.92 34.794 147.92 34.194C147.92 33.594 147.794 33.066 147.542 32.61C147.29 32.154 146.948 31.806 146.516 31.566C146.084 31.314 145.598 31.188 145.058 31.188C144.518 31.188 144.032 31.314 143.6 31.566C143.168 31.806 142.826 32.154 142.574 32.61C142.322 33.066 142.196 33.594 142.196 34.194C142.196 34.794 142.322 35.322 142.574 35.778C142.826 36.234 143.168 36.588 143.6 36.84C144.032 37.08 144.518 37.2 145.058 37.2ZM158.052 29.388H160.302V39H158.052V29.388ZM159.186 27.804C158.778 27.804 158.436 27.678 158.16 27.426C157.884 27.162 157.746 26.838 157.746 26.454C157.746 26.07 157.884 25.752 158.16 25.5C158.436 25.236 158.778 25.104 159.186 25.104C159.594 25.104 159.936 25.23 160.212 25.482C160.488 25.722 160.626 26.028 160.626 26.4C160.626 26.796 160.488 27.132 160.212 27.408C159.948 27.672 159.606 27.804 159.186 27.804ZM168.709 29.28C169.921 29.28 170.893 29.634 171.625 30.342C172.357 31.05 172.723 32.1 172.723 33.492V39H170.473V33.78C170.473 32.94 170.275 32.31 169.879 31.89C169.483 31.458 168.919 31.242 168.187 31.242C167.359 31.242 166.705 31.494 166.225 31.998C165.745 32.49 165.505 33.204 165.505 34.14V39H163.255V29.388H165.397V30.63C165.769 30.186 166.237 29.85 166.801 29.622C167.365 29.394 168.001 29.28 168.709 29.28ZM183.108 28.362V32.196H189.192V34.176H183.108V39H180.768V26.4H189.966V28.362H183.108ZM191.837 29.388H194.087V39H191.837V29.388ZM192.971 27.804C192.563 27.804 192.221 27.678 191.945 27.426C191.669 27.162 191.531 26.838 191.531 26.454C191.531 26.07 191.669 25.752 191.945 25.5C192.221 25.236 192.563 25.104 192.971 25.104C193.379 25.104 193.721 25.23 193.997 25.482C194.273 25.722 194.411 26.028 194.411 26.4C194.411 26.796 194.273 27.132 193.997 27.408C193.733 27.672 193.391 27.804 192.971 27.804ZM206.58 29.388V37.542C206.58 40.926 204.852 42.618 201.396 42.618C200.472 42.618 199.596 42.498 198.768 42.258C197.94 42.03 197.256 41.694 196.716 41.25L197.724 39.558C198.144 39.906 198.672 40.182 199.308 40.386C199.956 40.602 200.61 40.71 201.27 40.71C202.326 40.71 203.1 40.47 203.592 39.99C204.084 39.51 204.33 38.778 204.33 37.794V37.29C203.946 37.71 203.478 38.028 202.926 38.244C202.374 38.46 201.768 38.568 201.108 38.568C200.196 38.568 199.368 38.376 198.624 37.992C197.892 37.596 197.31 37.044 196.878 36.336C196.458 35.628 196.248 34.818 196.248 33.906C196.248 32.994 196.458 32.19 196.878 31.494C197.31 30.786 197.892 30.24 198.624 29.856C199.368 29.472 200.196 29.28 201.108 29.28C201.804 29.28 202.434 29.394 202.998 29.622C203.574 29.85 204.054 30.198 204.438 30.666V29.388H206.58ZM201.45 36.66C202.302 36.66 202.998 36.408 203.538 35.904C204.09 35.388 204.366 34.722 204.366 33.906C204.366 33.102 204.09 32.448 203.538 31.944C202.998 31.44 202.302 31.188 201.45 31.188C200.586 31.188 199.878 31.44 199.326 31.944C198.786 32.448 198.516 33.102 198.516 33.906C198.516 34.722 198.786 35.388 199.326 35.904C199.878 36.408 200.586 36.66 201.45 36.66ZM221.671 29.28C222.883 29.28 223.843 29.634 224.551 30.342C225.259 31.038 225.613 32.088 225.613 33.492V39H223.363V33.78C223.363 32.94 223.177 32.31 222.805 31.89C222.433 31.458 221.899 31.242 221.203 31.242C220.447 31.242 219.841 31.494 219.385 31.998C218.929 32.49 218.701 33.198 218.701 34.122V39H216.451V33.78C216.451 32.94 216.265 32.31 215.893 31.89C215.521 31.458 214.987 31.242 214.291 31.242C213.523 31.242 212.911 31.488 212.455 31.98C212.011 32.472 211.789 33.186 211.789 34.122V39H209.539V29.388H211.681V30.612C212.041 30.18 212.491 29.85 213.031 29.622C213.571 29.394 214.171 29.28 214.831 29.28C215.551 29.28 216.187 29.418 216.739 29.694C217.303 29.958 217.747 30.354 218.071 30.882C218.467 30.378 218.977 29.988 219.601 29.712C220.225 29.424 220.915 29.28 221.671 29.28ZM232.16 29.28C233.576 29.28 234.656 29.622 235.4 30.306C236.156 30.978 236.534 31.998 236.534 33.366V39H234.41V37.83C234.134 38.25 233.738 38.574 233.222 38.802C232.718 39.018 232.106 39.126 231.386 39.126C230.666 39.126 230.036 39.006 229.496 38.766C228.956 38.514 228.536 38.172 228.236 37.74C227.948 37.296 227.804 36.798 227.804 36.246C227.804 35.382 228.122 34.692 228.758 34.176C229.406 33.648 230.42 33.384 231.8 33.384H234.284V33.24C234.284 32.568 234.08 32.052 233.672 31.692C233.276 31.332 232.682 31.152 231.89 31.152C231.35 31.152 230.816 31.236 230.288 31.404C229.772 31.572 229.334 31.806 228.974 32.106L228.092 30.468C228.596 30.084 229.202 29.79 229.91 29.586C230.618 29.382 231.368 29.28 232.16 29.28ZM231.854 37.488C232.418 37.488 232.916 37.362 233.348 37.11C233.792 36.846 234.104 36.474 234.284 35.994V34.878H231.962C230.666 34.878 230.018 35.304 230.018 36.156C230.018 36.564 230.18 36.888 230.504 37.128C230.828 37.368 231.278 37.488 231.854 37.488ZM240.159 36.138C240.579 36.138 240.927 36.276 241.203 36.552C241.479 36.828 241.617 37.188 241.617 37.632C241.617 37.824 241.587 38.028 241.527 38.244C241.479 38.448 241.371 38.76 241.203 39.18L240.285 41.718H238.827L239.547 38.964C239.283 38.856 239.073 38.688 238.917 38.46C238.773 38.22 238.701 37.944 238.701 37.632C238.701 37.188 238.839 36.828 239.115 36.552C239.391 36.276 239.739 36.138 240.159 36.138ZM249.006 26.4H254.514C255.858 26.4 257.052 26.664 258.096 27.192C259.14 27.708 259.95 28.446 260.526 29.406C261.102 30.354 261.39 31.452 261.39 32.7C261.39 33.948 261.102 35.052 260.526 36.012C259.95 36.96 259.14 37.698 258.096 38.226C257.052 38.742 255.858 39 254.514 39H249.006V26.4ZM254.406 37.02C255.33 37.02 256.14 36.846 256.836 36.498C257.544 36.138 258.084 35.634 258.456 34.986C258.84 34.326 259.032 33.564 259.032 32.7C259.032 31.836 258.84 31.08 258.456 30.432C258.084 29.772 257.544 29.268 256.836 28.92C256.14 28.56 255.33 28.38 254.406 28.38H251.346V37.02H254.406ZM272.698 34.248C272.698 34.404 272.686 34.626 272.662 34.914H265.12C265.252 35.622 265.594 36.186 266.146 36.606C266.71 37.014 267.406 37.218 268.234 37.218C269.29 37.218 270.16 36.87 270.844 36.174L272.05 37.56C271.618 38.076 271.072 38.466 270.412 38.73C269.752 38.994 269.008 39.126 268.18 39.126C267.124 39.126 266.194 38.916 265.39 38.496C264.586 38.076 263.962 37.494 263.518 36.75C263.086 35.994 262.87 35.142 262.87 34.194C262.87 33.258 263.08 32.418 263.5 31.674C263.932 30.918 264.526 30.33 265.282 29.91C266.038 29.49 266.89 29.28 267.838 29.28C268.774 29.28 269.608 29.49 270.34 29.91C271.084 30.318 271.66 30.9 272.068 31.656C272.488 32.4 272.698 33.264 272.698 34.248ZM267.838 31.08C267.118 31.08 266.506 31.296 266.002 31.728C265.51 32.148 265.21 32.712 265.102 33.42H270.556C270.46 32.724 270.166 32.16 269.674 31.728C269.182 31.296 268.57 31.08 267.838 31.08ZM283.683 29.388L279.561 39H277.239L273.117 29.388H275.457L278.445 36.516L281.523 29.388H283.683ZM293.862 34.248C293.862 34.404 293.85 34.626 293.826 34.914H286.284C286.416 35.622 286.758 36.186 287.31 36.606C287.874 37.014 288.57 37.218 289.398 37.218C290.454 37.218 291.324 36.87 292.008 36.174L293.214 37.56C292.782 38.076 292.236 38.466 291.576 38.73C290.916 38.994 290.172 39.126 289.344 39.126C288.288 39.126 287.358 38.916 286.554 38.496C285.75 38.076 285.126 37.494 284.682 36.75C284.25 35.994 284.034 35.142 284.034 34.194C284.034 33.258 284.244 32.418 284.664 31.674C285.096 30.918 285.69 30.33 286.446 29.91C287.202 29.49 288.054 29.28 289.002 29.28C289.938 29.28 290.772 29.49 291.504 29.91C292.248 30.318 292.824 30.9 293.232 31.656C293.652 32.4 293.862 33.264 293.862 34.248ZM289.002 31.08C288.282 31.08 287.67 31.296 287.166 31.728C286.674 32.148 286.374 32.712 286.266 33.42H291.72C291.624 32.724 291.33 32.16 290.838 31.728C290.346 31.296 289.734 31.08 289.002 31.08ZM296.023 25.644H298.273V39H296.023V25.644ZM305.546 39.126C304.574 39.126 303.698 38.916 302.918 38.496C302.138 38.076 301.526 37.494 301.082 36.75C300.65 35.994 300.434 35.142 300.434 34.194C300.434 33.246 300.65 32.4 301.082 31.656C301.526 30.912 302.138 30.33 302.918 29.91C303.698 29.49 304.574 29.28 305.546 29.28C306.53 29.28 307.412 29.49 308.192 29.91C308.972 30.33 309.578 30.912 310.01 31.656C310.454 32.4 310.676 33.246 310.676 34.194C310.676 35.142 310.454 35.994 310.01 36.75C309.578 37.494 308.972 38.076 308.192 38.496C307.412 38.916 306.53 39.126 305.546 39.126ZM305.546 37.2C306.374 37.2 307.058 36.924 307.598 36.372C308.138 35.82 308.408 35.094 308.408 34.194C308.408 33.294 308.138 32.568 307.598 32.016C307.058 31.464 306.374 31.188 305.546 31.188C304.718 31.188 304.034 31.464 303.494 32.016C302.966 32.568 302.702 33.294 302.702 34.194C302.702 35.094 302.966 35.82 303.494 36.372C304.034 36.924 304.718 37.2 305.546 37.2ZM318.156 29.28C319.092 29.28 319.926 29.484 320.658 29.892C321.402 30.3 321.984 30.876 322.404 31.62C322.824 32.364 323.034 33.222 323.034 34.194C323.034 35.166 322.824 36.03 322.404 36.786C321.984 37.53 321.402 38.106 320.658 38.514C319.926 38.922 319.092 39.126 318.156 39.126C316.86 39.126 315.834 38.694 315.078 37.83V42.492H312.828V29.388H314.97V30.648C315.342 30.192 315.798 29.85 316.338 29.622C316.89 29.394 317.496 29.28 318.156 29.28ZM317.904 37.2C318.732 37.2 319.41 36.924 319.938 36.372C320.478 35.82 320.748 35.094 320.748 34.194C320.748 33.294 320.478 32.568 319.938 32.016C319.41 31.464 318.732 31.188 317.904 31.188C317.364 31.188 316.878 31.314 316.446 31.566C316.014 31.806 315.672 32.154 315.42 32.61C315.168 33.066 315.042 33.594 315.042 34.194C315.042 34.794 315.168 35.322 315.42 35.778C315.672 36.234 316.014 36.588 316.446 36.84C316.878 37.08 317.364 37.2 317.904 37.2ZM334.203 34.248C334.203 34.404 334.191 34.626 334.167 34.914H326.625C326.757 35.622 327.099 36.186 327.651 36.606C328.215 37.014 328.911 37.218 329.739 37.218C330.795 37.218 331.665 36.87 332.349 36.174L333.555 37.56C333.123 38.076 332.577 38.466 331.917 38.73C331.257 38.994 330.513 39.126 329.685 39.126C328.629 39.126 327.699 38.916 326.895 38.496C326.091 38.076 325.467 37.494 325.023 36.75C324.591 35.994 324.375 35.142 324.375 34.194C324.375 33.258 324.585 32.418 325.005 31.674C325.437 30.918 326.031 30.33 326.787 29.91C327.543 29.49 328.395 29.28 329.343 29.28C330.279 29.28 331.113 29.49 331.845 29.91C332.589 30.318 333.165 30.9 333.573 31.656C333.993 32.4 334.203 33.264 334.203 34.248ZM329.343 31.08C328.623 31.08 328.011 31.296 327.507 31.728C327.015 32.148 326.715 32.712 326.607 33.42H332.061C331.965 32.724 331.671 32.16 331.179 31.728C330.687 31.296 330.075 31.08 329.343 31.08ZM345.779 25.644V39H343.619V37.758C343.247 38.214 342.785 38.556 342.233 38.784C341.693 39.012 341.093 39.126 340.433 39.126C339.509 39.126 338.675 38.922 337.931 38.514C337.199 38.106 336.623 37.53 336.203 36.786C335.783 36.03 335.573 35.166 335.573 34.194C335.573 33.222 335.783 32.364 336.203 31.62C336.623 30.876 337.199 30.3 337.931 29.892C338.675 29.484 339.509 29.28 340.433 29.28C341.069 29.28 341.651 29.388 342.179 29.604C342.707 29.82 343.157 30.144 343.529 30.576V25.644H345.779ZM340.703 37.2C341.243 37.2 341.729 37.08 342.161 36.84C342.593 36.588 342.935 36.234 343.187 35.778C343.439 35.322 343.565 34.794 343.565 34.194C343.565 33.594 343.439 33.066 343.187 32.61C342.935 32.154 342.593 31.806 342.161 31.566C341.729 31.314 341.243 31.188 340.703 31.188C340.163 31.188 339.677 31.314 339.245 31.566C338.813 31.806 338.471 32.154 338.219 32.61C337.967 33.066 337.841 33.594 337.841 34.194C337.841 34.794 337.967 35.322 338.219 35.778C338.471 36.234 338.813 36.588 339.245 36.84C339.677 37.08 340.163 37.2 340.703 37.2ZM368.691 29.388L365.145 39H362.985L360.501 32.376L357.981 39H355.821L352.293 29.388H354.417L356.955 36.48L359.601 29.388H361.491L364.083 36.516L366.693 29.388H368.691ZM370.238 29.388H372.488V39H370.238V29.388ZM371.372 27.804C370.964 27.804 370.622 27.678 370.346 27.426C370.07 27.162 369.932 26.838 369.932 26.454C369.932 26.07 370.07 25.752 370.346 25.5C370.622 25.236 370.964 25.104 371.372 25.104C371.78 25.104 372.122 25.23 372.398 25.482C372.674 25.722 372.812 26.028 372.812 26.4C372.812 26.796 372.674 27.132 372.398 27.408C372.134 27.672 371.792 27.804 371.372 27.804ZM381.219 38.478C380.955 38.694 380.631 38.856 380.247 38.964C379.875 39.072 379.479 39.126 379.059 39.126C378.003 39.126 377.187 38.85 376.611 38.298C376.035 37.746 375.747 36.942 375.747 35.886V31.26H374.163V29.46H375.747V27.264H377.997V29.46H380.571V31.26H377.997V35.832C377.997 36.3 378.111 36.66 378.339 36.912C378.567 37.152 378.897 37.272 379.329 37.272C379.833 37.272 380.253 37.14 380.589 36.876L381.219 38.478ZM388.524 29.28C389.736 29.28 390.708 29.634 391.44 30.342C392.172 31.05 392.538 32.1 392.538 33.492V39H390.288V33.78C390.288 32.94 390.09 32.31 389.694 31.89C389.298 31.458 388.734 31.242 388.002 31.242C387.174 31.242 386.52 31.494 386.04 31.998C385.56 32.49 385.32 33.204 385.32 34.14V39H383.07V25.644H385.32V30.504C385.692 30.108 386.148 29.808 386.688 29.604C387.24 29.388 387.852 29.28 388.524 29.28ZM409.511 32.448C410.207 32.676 410.759 33.06 411.167 33.6C411.575 34.128 411.779 34.788 411.779 35.58C411.779 36.672 411.359 37.518 410.519 38.118C409.679 38.706 408.455 39 406.847 39H400.583V26.4H406.487C407.975 26.4 409.121 26.694 409.925 27.282C410.729 27.858 411.131 28.656 411.131 29.676C411.131 30.3 410.987 30.852 410.699 31.332C410.411 31.812 410.015 32.184 409.511 32.448ZM402.923 28.236V31.71H406.235C407.051 31.71 407.675 31.566 408.107 31.278C408.551 30.978 408.773 30.546 408.773 29.982C408.773 29.406 408.551 28.974 408.107 28.686C407.675 28.386 407.051 28.236 406.235 28.236H402.923ZM406.703 37.164C408.515 37.164 409.421 36.558 409.421 35.346C409.421 34.134 408.515 33.528 406.703 33.528H402.923V37.164H406.703ZM418.38 39.126C417.408 39.126 416.532 38.916 415.752 38.496C414.972 38.076 414.36 37.494 413.916 36.75C413.484 35.994 413.268 35.142 413.268 34.194C413.268 33.246 413.484 32.4 413.916 31.656C414.36 30.912 414.972 30.33 415.752 29.91C416.532 29.49 417.408 29.28 418.38 29.28C419.364 29.28 420.246 29.49 421.026 29.91C421.806 30.33 422.412 30.912 422.844 31.656C423.288 32.4 423.51 33.246 423.51 34.194C423.51 35.142 423.288 35.994 422.844 36.75C422.412 37.494 421.806 38.076 421.026 38.496C420.246 38.916 419.364 39.126 418.38 39.126ZM418.38 37.2C419.208 37.2 419.892 36.924 420.432 36.372C420.972 35.82 421.242 35.094 421.242 34.194C421.242 33.294 420.972 32.568 420.432 32.016C419.892 31.464 419.208 31.188 418.38 31.188C417.552 31.188 416.868 31.464 416.328 32.016C415.8 32.568 415.536 33.294 415.536 34.194C415.536 35.094 415.8 35.82 416.328 36.372C416.868 36.924 417.552 37.2 418.38 37.2ZM429.982 39.126C429.01 39.126 428.134 38.916 427.354 38.496C426.574 38.076 425.962 37.494 425.518 36.75C425.086 35.994 424.87 35.142 424.87 34.194C424.87 33.246 425.086 32.4 425.518 31.656C425.962 30.912 426.574 30.33 427.354 29.91C428.134 29.49 429.01 29.28 429.982 29.28C430.966 29.28 431.848 29.49 432.628 29.91C433.408 30.33 434.014 30.912 434.446 31.656C434.89 32.4 435.112 33.246 435.112 34.194C435.112 35.142 434.89 35.994 434.446 36.75C434.014 37.494 433.408 38.076 432.628 38.496C431.848 38.916 430.966 39.126 429.982 39.126ZM429.982 37.2C430.81 37.2 431.494 36.924 432.034 36.372C432.574 35.82 432.844 35.094 432.844 34.194C432.844 33.294 432.574 32.568 432.034 32.016C431.494 31.464 430.81 31.188 429.982 31.188C429.154 31.188 428.47 31.464 427.93 32.016C427.402 32.568 427.138 33.294 427.138 34.194C427.138 35.094 427.402 35.82 427.93 36.372C428.47 36.924 429.154 37.2 429.982 37.2ZM443.041 38.478C442.777 38.694 442.453 38.856 442.069 38.964C441.697 39.072 441.301 39.126 440.881 39.126C439.825 39.126 439.009 38.85 438.433 38.298C437.857 37.746 437.569 36.942 437.569 35.886V31.26H435.985V29.46H437.569V27.264H439.819V29.46H442.393V31.26H439.819V35.832C439.819 36.3 439.933 36.66 440.161 36.912C440.389 37.152 440.719 37.272 441.151 37.272C441.655 37.272 442.075 37.14 442.411 36.876L443.041 38.478ZM447.862 39.126C447.082 39.126 446.32 39.024 445.576 38.82C444.832 38.616 444.238 38.358 443.794 38.046L444.658 36.336C445.09 36.624 445.606 36.858 446.206 37.038C446.818 37.206 447.418 37.29 448.006 37.29C449.35 37.29 450.022 36.936 450.022 36.228C450.022 35.892 449.848 35.658 449.5 35.526C449.164 35.394 448.618 35.268 447.862 35.148C447.07 35.028 446.422 34.89 445.918 34.734C445.426 34.578 444.994 34.308 444.622 33.924C444.262 33.528 444.082 32.982 444.082 32.286C444.082 31.374 444.46 30.648 445.216 30.108C445.984 29.556 447.016 29.28 448.312 29.28C448.972 29.28 449.632 29.358 450.292 29.514C450.952 29.658 451.492 29.856 451.912 30.108L451.048 31.818C450.232 31.338 449.314 31.098 448.294 31.098C447.634 31.098 447.13 31.2 446.782 31.404C446.446 31.596 446.278 31.854 446.278 32.178C446.278 32.538 446.458 32.796 446.818 32.952C447.19 33.096 447.76 33.234 448.528 33.366C449.296 33.486 449.926 33.624 450.418 33.78C450.91 33.936 451.33 34.2 451.678 34.572C452.038 34.944 452.218 35.472 452.218 36.156C452.218 37.056 451.828 37.776 451.048 38.316C450.268 38.856 449.206 39.126 447.862 39.126ZM459.934 38.478C459.67 38.694 459.346 38.856 458.962 38.964C458.59 39.072 458.194 39.126 457.774 39.126C456.718 39.126 455.902 38.85 455.326 38.298C454.75 37.746 454.462 36.942 454.462 35.886V31.26H452.878V29.46H454.462V27.264H456.712V29.46H459.286V31.26H456.712V35.832C456.712 36.3 456.826 36.66 457.054 36.912C457.282 37.152 457.612 37.272 458.044 37.272C458.548 37.272 458.968 37.14 459.304 36.876L459.934 38.478ZM463.927 30.792C464.575 29.784 465.715 29.28 467.347 29.28V31.422C467.155 31.386 466.981 31.368 466.825 31.368C465.949 31.368 465.265 31.626 464.773 32.142C464.281 32.646 464.035 33.378 464.035 34.338V39H461.785V29.388H463.927V30.792ZM472.875 29.28C474.291 29.28 475.371 29.622 476.115 30.306C476.871 30.978 477.249 31.998 477.249 33.366V39H475.125V37.83C474.849 38.25 474.453 38.574 473.937 38.802C473.433 39.018 472.821 39.126 472.101 39.126C471.381 39.126 470.751 39.006 470.211 38.766C469.671 38.514 469.251 38.172 468.951 37.74C468.663 37.296 468.519 36.798 468.519 36.246C468.519 35.382 468.837 34.692 469.473 34.176C470.121 33.648 471.135 33.384 472.515 33.384H474.999V33.24C474.999 32.568 474.795 32.052 474.387 31.692C473.991 31.332 473.397 31.152 472.605 31.152C472.065 31.152 471.531 31.236 471.003 31.404C470.487 31.572 470.049 31.806 469.689 32.106L468.807 30.468C469.311 30.084 469.917 29.79 470.625 29.586C471.333 29.382 472.083 29.28 472.875 29.28ZM472.569 37.488C473.133 37.488 473.631 37.362 474.063 37.11C474.507 36.846 474.819 36.474 474.999 35.994V34.878H472.677C471.381 34.878 470.733 35.304 470.733 36.156C470.733 36.564 470.895 36.888 471.219 37.128C471.543 37.368 471.993 37.488 472.569 37.488ZM485.464 29.28C486.4 29.28 487.234 29.484 487.966 29.892C488.71 30.3 489.292 30.876 489.712 31.62C490.132 32.364 490.342 33.222 490.342 34.194C490.342 35.166 490.132 36.03 489.712 36.786C489.292 37.53 488.71 38.106 487.966 38.514C487.234 38.922 486.4 39.126 485.464 39.126C484.168 39.126 483.142 38.694 482.386 37.83V42.492H480.136V29.388H482.278V30.648C482.65 30.192 483.106 29.85 483.646 29.622C484.198 29.394 484.804 29.28 485.464 29.28ZM485.212 37.2C486.04 37.2 486.718 36.924 487.246 36.372C487.786 35.82 488.056 35.094 488.056 34.194C488.056 33.294 487.786 32.568 487.246 32.016C486.718 31.464 486.04 31.188 485.212 31.188C484.672 31.188 484.186 31.314 483.754 31.566C483.322 31.806 482.98 32.154 482.728 32.61C482.476 33.066 482.35 33.594 482.35 34.194C482.35 34.794 482.476 35.322 482.728 35.778C482.98 36.234 483.322 36.588 483.754 36.84C484.186 37.08 484.672 37.2 485.212 37.2Z" fill="white"/>
</svg>
