<svg width="100" height="100" viewBox="0 0 100 100" fill="none" xmlns="http://www.w3.org/2000/svg">
<path d="M15.5469 65.5039C18.043 65.5039 19.9033 65.9785 21.1279 66.9277C22.3525 67.8711 22.9648 69.292 22.9648 71.1904C22.9648 72.2861 22.792 73.2061 22.4463 73.9502C22.1064 74.6885 21.6201 75.2861 20.9873 75.7432C20.3604 76.1943 19.6016 76.5166 18.7109 76.71C17.8262 76.9033 16.8359 77 15.7402 77H10.625V75.4355H11.0557C11.2373 75.4355 11.3809 75.4121 11.4863 75.3652C11.5918 75.3125 11.6709 75.2451 11.7236 75.1631C11.7764 75.0752 11.8086 74.9727 11.8203 74.8555C11.8379 74.7383 11.8467 74.6094 11.8467 74.4688C11.8467 74.4512 11.8467 74.3457 11.8467 74.1523C11.8467 73.9531 11.8438 73.6982 11.8379 73.3877C11.8379 73.0771 11.8379 72.7256 11.8379 72.333C11.8379 71.9404 11.8379 71.542 11.8379 71.1377V67.9033C11.8379 67.7803 11.8262 67.6689 11.8027 67.5693C11.7852 67.4697 11.7471 67.3818 11.6885 67.3057C11.6357 67.2295 11.5566 67.1709 11.4512 67.1299C11.3516 67.083 11.2197 67.0596 11.0557 67.0596H10.625V65.5039H15.5469ZM14.7207 75.2949H15.9863C16.6309 75.2949 17.1934 75.2158 17.6738 75.0576C18.1602 74.8994 18.5615 74.6533 18.8779 74.3193C19.2002 73.9795 19.4404 73.5488 19.5986 73.0273C19.7627 72.5059 19.8447 71.8818 19.8447 71.1553C19.8447 69.7842 19.5254 68.7852 18.8867 68.1582C18.2539 67.5254 17.2842 67.209 15.9775 67.209H14.7207V75.2949ZM28.168 77.1758C27.6699 77.1758 27.248 77.0967 26.9023 76.9385C26.5566 76.7744 26.2754 76.5312 26.0586 76.209C25.8477 75.8867 25.6953 75.4766 25.6016 74.9785C25.5078 74.4805 25.4609 73.8975 25.4609 73.2295V71.0762C25.4609 70.9121 25.4434 70.7861 25.4082 70.6982C25.3789 70.6104 25.3232 70.5488 25.2412 70.5137C25.1592 70.4727 25.0449 70.4492 24.8984 70.4434C24.7578 70.4375 24.5762 70.4346 24.3535 70.4346V69.0283C24.4473 69.0283 24.5703 69.0283 24.7227 69.0283C24.8809 69.0283 25.0391 69.0312 25.1973 69.0371C25.3555 69.0371 25.4961 69.0371 25.6191 69.0371C25.748 69.0371 25.833 69.0371 25.874 69.0371C26.2607 69.0312 26.6387 69.0254 27.0078 69.0195C27.3828 69.0137 27.7637 69.0049 28.1504 68.9932V73.5811C28.1504 73.9033 28.1709 74.1904 28.2119 74.4424C28.2529 74.6943 28.3232 74.9053 28.4229 75.0752C28.5283 75.2451 28.6689 75.377 28.8447 75.4707C29.0205 75.5586 29.2432 75.6025 29.5127 75.6025C30.0107 75.6025 30.415 75.5234 30.7256 75.3652C31.042 75.207 31.2764 75.002 31.4287 74.75C31.4932 74.5742 31.5283 74.3838 31.5342 74.1787C31.5459 73.9678 31.5518 73.748 31.5518 73.5195V71.2432C31.5518 71.0381 31.5342 70.8828 31.499 70.7773C31.4697 70.666 31.4111 70.5869 31.3232 70.54C31.2354 70.4873 31.1123 70.458 30.9541 70.4521C30.8018 70.4404 30.5996 70.4346 30.3477 70.4346V69.0283C30.6289 69.0342 30.9072 69.0371 31.1826 69.0371C31.458 69.0371 31.7715 69.0371 32.123 69.0371C32.4863 69.0312 32.8408 69.0254 33.1865 69.0195C33.5322 69.0137 33.8809 69.0049 34.2324 68.9932V75.04C34.2324 75.1572 34.2471 75.2539 34.2764 75.3301C34.3115 75.4004 34.3701 75.4561 34.4521 75.4971C34.5342 75.5381 34.6455 75.5645 34.7861 75.5762C34.9268 75.5879 35.1055 75.5938 35.3223 75.5938V77C35.0469 77 34.8008 77 34.584 77C34.373 76.9941 34.1562 76.9912 33.9336 76.9912C33.5469 76.9971 33.1631 77 32.7822 77C32.4014 77.0059 32.0176 77.0146 31.6309 77.0264V75.7959C31.2383 76.2646 30.7432 76.6133 30.1455 76.8418C29.5479 77.0645 28.8887 77.1758 28.168 77.1758ZM37.6777 69.0283C38.6797 69.0225 39.418 69.0078 39.8926 68.9844V70.6719C40.1152 70.0684 40.4727 69.6113 40.9648 69.3008C41.4629 68.9902 42.0752 68.835 42.8018 68.835C42.9365 68.835 43.0713 68.8408 43.2061 68.8525C43.3467 68.8643 43.4873 68.8818 43.6279 68.9053V71.5596C43.5752 71.5537 43.5078 71.5508 43.4258 71.5508C43.3496 71.5508 43.2852 71.5508 43.2324 71.5508C43.1387 71.5508 43.0303 71.5537 42.9072 71.5596C42.79 71.5596 42.6904 71.5625 42.6084 71.5684C42.5439 71.3223 42.4385 71.1465 42.292 71.041C42.1514 70.9355 41.9551 70.8828 41.7031 70.8828C41.4805 70.8828 41.2754 70.9268 41.0879 71.0146C40.9004 71.1025 40.7334 71.2285 40.5869 71.3926C40.4463 71.5508 40.3291 71.7471 40.2354 71.9814C40.1475 72.21 40.0889 72.4648 40.0596 72.7461C40.042 72.8047 40.0273 72.9365 40.0156 73.1416C40.0039 73.3467 39.9951 73.5723 39.9893 73.8184C39.9834 74.0586 39.9805 74.293 39.9805 74.5215C39.9805 74.7441 39.9805 74.9053 39.9805 75.0049C39.9805 75.1572 40.001 75.2715 40.042 75.3477C40.0889 75.4238 40.165 75.4795 40.2705 75.5146C40.376 75.5498 40.5137 75.5703 40.6836 75.5762C40.8535 75.5762 41.0615 75.5762 41.3076 75.5762V77C41.0732 77 40.8418 77 40.6133 77C40.3906 76.9941 40.1621 76.9912 39.9277 76.9912C39.6934 76.9912 39.4443 76.9912 39.1807 76.9912C38.9229 76.9854 38.6416 76.9824 38.3369 76.9824C38.0967 76.9824 37.877 76.9854 37.6777 76.9912C37.4844 76.9912 37.2998 76.9912 37.124 76.9912C36.9541 76.9912 36.7842 76.9941 36.6143 77C36.4502 77 36.2803 77 36.1045 77V75.5762C36.3506 75.5762 36.5439 75.5703 36.6846 75.5586C36.8311 75.5469 36.9365 75.5176 37.001 75.4707C37.1182 75.4414 37.1943 75.3799 37.2295 75.2861C37.2705 75.1865 37.291 75.0254 37.291 74.8027V70.9268C37.291 70.7979 37.2676 70.7012 37.2207 70.6367C37.1797 70.5664 37.1123 70.5166 37.0186 70.4873C36.9248 70.458 36.8047 70.4404 36.6582 70.4346C36.5117 70.4287 36.3359 70.4258 36.1309 70.4258V69.0195C36.2305 69.0195 36.7461 69.0225 37.6777 69.0283ZM53.0322 74.6094C53.0322 74.8496 53.0381 75.0371 53.0498 75.1719C53.0674 75.3066 53.0996 75.4062 53.1465 75.4707C53.1992 75.5293 53.2695 75.5645 53.3574 75.5762C53.4453 75.5879 53.5654 75.5938 53.7178 75.5938H54.1396V77C54.0928 77 53.9902 77 53.832 77C53.6738 77 53.501 77 53.3135 77C53.126 76.9941 52.9443 76.9912 52.7686 76.9912C52.5986 76.9912 52.4785 76.9912 52.4082 76.9912C52.2441 76.9912 52.0947 76.9941 51.96 77C51.8252 77 51.6934 77 51.5645 77C51.4414 77.0059 51.3125 77.0088 51.1777 77.0088C51.043 77.0146 50.8936 77.0205 50.7295 77.0264L50.4658 75.8838C50.3369 76.0889 50.1846 76.2734 50.0088 76.4375C49.833 76.5957 49.6221 76.7334 49.376 76.8506C49.1299 76.9619 48.8457 77.0469 48.5234 77.1055C48.2012 77.1699 47.832 77.2021 47.416 77.2021C46.9121 77.2021 46.4668 77.1348 46.0801 77C45.6992 76.8711 45.3799 76.6953 45.1221 76.4727C44.8701 76.25 44.6797 75.9893 44.5508 75.6904C44.4219 75.3857 44.3574 75.0635 44.3574 74.7236C44.3574 74.3311 44.4424 73.9766 44.6123 73.6602C44.7881 73.3438 45.0371 73.0771 45.3594 72.8604C45.6875 72.6377 46.083 72.4678 46.5459 72.3506C47.0088 72.2275 47.5332 72.166 48.1191 72.166C48.5 72.166 48.8809 72.1895 49.2617 72.2363C49.6426 72.2773 50.0029 72.3418 50.3428 72.4297V71.4189C50.3428 70.9736 50.1875 70.6191 49.877 70.3555C49.5723 70.0918 49.0977 69.96 48.4531 69.96C47.3867 69.96 46.751 70.3848 46.5459 71.2344L45.0957 71.1025L45.1484 69.3447C45.2363 69.3037 45.3799 69.251 45.5791 69.1865C45.7783 69.1221 46.0303 69.0605 46.335 69.002C46.6396 68.9375 46.9912 68.8848 47.3896 68.8438C47.7881 68.7969 48.2305 68.7734 48.7168 68.7734C49.4785 68.7734 50.1318 68.8291 50.6768 68.9404C51.2217 69.0459 51.667 69.2158 52.0127 69.4502C52.3643 69.6846 52.6221 69.9893 52.7861 70.3643C52.9502 70.7334 53.0322 71.1846 53.0322 71.7178V74.6094ZM48.8838 73.0801C48.2686 73.0801 47.791 73.2061 47.4512 73.458C47.1113 73.71 46.9414 74.0645 46.9414 74.5215C46.9414 74.7383 46.9795 74.9141 47.0557 75.0488C47.1318 75.1777 47.2344 75.3037 47.3633 75.4268C47.498 75.5439 47.6562 75.6348 47.8379 75.6992C48.0254 75.7637 48.2246 75.7959 48.4355 75.7959C48.7227 75.7959 48.9834 75.7578 49.2178 75.6816C49.4521 75.6055 49.6514 75.4941 49.8154 75.3477C49.9854 75.1953 50.1143 75.0312 50.2021 74.8555C50.2959 74.6797 50.3428 74.4541 50.3428 74.1787V73.2734C50.0967 73.2031 49.8535 73.1533 49.6133 73.124C49.373 73.0947 49.1299 73.0801 48.8838 73.0801ZM58.4639 66.6025V69.0195H60.6172V70.4258H58.4727V73.9941C58.4727 74.252 58.4785 74.4775 58.4902 74.6709C58.5078 74.8584 58.543 75.0166 58.5957 75.1455C58.6484 75.2686 58.7246 75.3623 58.8242 75.4268C58.9238 75.4912 59.0557 75.5234 59.2197 75.5234C59.6123 75.5234 59.8086 75.251 59.8086 74.7061L60.7842 74.583V74.8643C60.7725 75.2979 60.7109 75.6582 60.5996 75.9453C60.4941 76.2324 60.3389 76.4727 60.1338 76.666C59.9287 76.8535 59.6797 76.9883 59.3867 77.0703C59.0938 77.1582 58.7598 77.2021 58.3848 77.2021C57.4766 77.2021 56.8145 76.9619 56.3984 76.4814C55.9883 75.9951 55.7832 75.3242 55.7832 74.4688V70.4258H54.4473V69.1162C54.5117 69.1162 54.626 69.1104 54.79 69.0986C54.96 69.0811 55.1328 69.0664 55.3086 69.0547C55.5078 69.0371 55.7275 69.0195 55.9678 69.002C55.9678 68.9844 55.9736 68.9287 55.9854 68.835C56.0029 68.7354 56.0234 68.6182 56.0469 68.4834C56.0703 68.3486 56.0938 68.2021 56.1172 68.0439C56.1465 67.8857 56.1699 67.7363 56.1875 67.5957C56.2109 67.4551 56.2285 67.332 56.2402 67.2266C56.2578 67.1211 56.2666 67.0508 56.2666 67.0156L58.4639 66.6025ZM64.1152 65.2666C64.332 65.2666 64.5312 65.293 64.7129 65.3457C64.9004 65.3926 65.0615 65.4629 65.1963 65.5566C65.3369 65.6445 65.4453 65.7559 65.5215 65.8906C65.5977 66.0254 65.6357 66.1748 65.6357 66.3389C65.6357 66.667 65.498 66.9307 65.2227 67.1299C64.9531 67.3291 64.584 67.4287 64.1152 67.4287C63.6582 67.4287 63.292 67.3379 63.0166 67.1562C62.7412 66.9746 62.6035 66.7021 62.6035 66.3389C62.6035 66.0166 62.7412 65.7588 63.0166 65.5654C63.292 65.3662 63.6582 65.2666 64.1152 65.2666ZM65.6182 74.7676C65.6182 74.9492 65.6299 75.0928 65.6533 75.1982C65.6826 75.3037 65.7324 75.3857 65.8027 75.4443C65.8789 75.4971 65.9844 75.5322 66.1191 75.5498C66.2539 75.5674 66.4297 75.5762 66.6465 75.5762V77C66.4473 77 66.2246 77 65.9785 77C65.7383 76.9941 65.4922 76.9912 65.2402 76.9912C64.9941 76.9912 64.7539 76.9912 64.5195 76.9912C64.291 76.9854 64.0889 76.9824 63.9131 76.9824C63.7021 76.9824 63.5059 76.9854 63.3242 76.9912C63.1426 76.9912 62.9697 76.9912 62.8057 76.9912C62.6416 76.9912 62.4805 76.9941 62.3223 77C62.1641 77 62.0029 77 61.8389 77V75.5762C62.085 75.5762 62.2783 75.5703 62.4189 75.5586C62.5654 75.541 62.6768 75.5059 62.7529 75.4531C62.8291 75.3945 62.8789 75.3125 62.9023 75.207C62.9258 75.1016 62.9375 74.9551 62.9375 74.7676V70.918C62.9375 70.7949 62.917 70.7012 62.876 70.6367C62.835 70.5723 62.7705 70.5254 62.6826 70.4961C62.5947 70.4609 62.4834 70.4404 62.3486 70.4346C62.2197 70.4287 62.0645 70.4258 61.8828 70.4258C61.8828 70.1855 61.8828 69.9512 61.8828 69.7227C61.8887 69.4941 61.8916 69.2598 61.8916 69.0195C62.1377 69.0195 62.3721 69.0225 62.5947 69.0283C62.8174 69.0283 63.0342 69.0283 63.2451 69.0283C63.626 69.0283 64.0127 69.0254 64.4053 69.0195C64.8037 69.0137 65.208 69.002 65.6182 68.9844V74.7676ZM72.6318 68.7734C73.2822 68.7734 73.9004 68.8643 74.4863 69.0459C75.0723 69.2275 75.585 69.4971 76.0244 69.8545C76.4639 70.2119 76.8125 70.6572 77.0703 71.1904C77.3281 71.7178 77.457 72.3271 77.457 73.0186C77.457 73.6924 77.3311 74.293 77.0791 74.8203C76.8271 75.3477 76.4844 75.7812 76.0508 76.1211C75.6172 76.4609 75.1074 76.7275 74.5215 76.9209C73.9355 77.1084 73.3057 77.2021 72.6318 77.2021C71.9521 77.2021 71.3193 77.1084 70.7334 76.9209C70.1475 76.7334 69.6348 76.4697 69.1953 76.1299C68.7617 75.79 68.4189 75.3564 68.167 74.8291C67.9209 74.3018 67.7979 73.6982 67.7979 73.0186C67.7979 72.3506 67.9209 71.7529 68.167 71.2256C68.4131 70.6982 68.7529 70.2529 69.1865 69.8896C69.6201 69.5264 70.1299 69.251 70.7158 69.0635C71.3076 68.8701 71.9463 68.7734 72.6318 68.7734ZM72.6406 70.2236C71.9727 70.2236 71.457 70.4697 71.0938 70.9619C70.7305 71.4541 70.5488 72.1367 70.5488 73.0098C70.5488 73.8887 70.7275 74.5742 71.085 75.0664C71.4424 75.5527 71.9521 75.7959 72.6143 75.7959C72.9424 75.7959 73.2354 75.7314 73.4932 75.6025C73.751 75.4736 73.9707 75.2891 74.1523 75.0488C74.334 74.8086 74.4717 74.5127 74.5654 74.1611C74.6592 73.8096 74.7061 73.4141 74.7061 72.9746C74.7061 72.5469 74.6592 72.1631 74.5654 71.8232C74.4717 71.4834 74.3369 71.1963 74.1611 70.9619C73.9854 70.7217 73.7686 70.54 73.5107 70.417C73.2529 70.2881 72.9629 70.2236 72.6406 70.2236ZM78.5205 77C78.5205 76.9883 78.5205 76.9473 78.5205 76.877C78.5205 76.8008 78.5205 76.7129 78.5205 76.6133C78.5205 76.5137 78.5176 76.4053 78.5117 76.2881C78.5117 76.1709 78.5117 76.0625 78.5117 75.9629C78.5117 75.8633 78.5117 75.7783 78.5117 75.708C78.5117 75.6377 78.5117 75.5938 78.5117 75.5762C78.7637 75.5762 78.9688 75.5703 79.127 75.5586C79.2852 75.5469 79.4082 75.5176 79.4961 75.4707C79.584 75.4238 79.6426 75.3535 79.6719 75.2598C79.707 75.166 79.7246 75.0342 79.7246 74.8643V70.874C79.7246 70.7627 79.7012 70.6777 79.6543 70.6191C79.6074 70.5547 79.5342 70.5107 79.4346 70.4873C79.3408 70.458 79.2207 70.4404 79.0742 70.4346C78.9277 70.4287 78.7578 70.4258 78.5645 70.4258V69.0195C78.8164 69.0195 79.0566 69.0225 79.2852 69.0283C79.5137 69.0283 79.7334 69.0283 79.9443 69.0283C80.3486 69.0283 80.7412 69.0254 81.1221 69.0195C81.5029 69.0137 81.9043 69.002 82.3262 68.9844V70.3027C82.4902 70.1094 82.6807 69.9277 82.8975 69.7578C83.1143 69.582 83.3545 69.4297 83.6182 69.3008C83.8818 69.166 84.1689 69.0605 84.4795 68.9844C84.79 68.9023 85.1211 68.8555 85.4727 68.8438C85.9707 68.8438 86.4072 68.9053 86.7822 69.0283C87.1631 69.1514 87.4795 69.3447 87.7314 69.6084C87.9893 69.8721 88.1826 70.2119 88.3115 70.6279C88.4404 71.0439 88.5049 71.542 88.5049 72.1221V75.0488C88.5049 75.1953 88.5283 75.3037 88.5752 75.374C88.6221 75.4443 88.6895 75.4941 88.7773 75.5234C88.8711 75.5527 88.9854 75.5703 89.1201 75.5762C89.2549 75.5762 89.4102 75.5762 89.5859 75.5762V77C89.4043 77 89.2285 77 89.0586 77C88.8887 77 88.7129 77 88.5312 77C88.3496 76.9941 88.1562 76.9912 87.9512 76.9912C87.7461 76.9854 87.5205 76.9824 87.2744 76.9824C86.8174 76.9824 86.3838 76.9854 85.9736 76.9912C85.5693 76.9971 85.165 77 84.7607 77V75.5762C85.0244 75.5762 85.2266 75.5703 85.3672 75.5586C85.5137 75.541 85.6191 75.5088 85.6836 75.4619C85.748 75.415 85.7861 75.3477 85.7979 75.2598C85.8096 75.1719 85.8154 75.0547 85.8154 74.9082V72.5C85.8154 72.1777 85.792 71.8936 85.7451 71.6475C85.6982 71.4014 85.6191 71.1963 85.5078 71.0322C85.3965 70.8682 85.2471 70.7451 85.0596 70.6631C84.8721 70.5752 84.6406 70.5312 84.3652 70.5312C84.1309 70.5312 83.917 70.5576 83.7236 70.6104C83.5361 70.6572 83.3662 70.7217 83.2139 70.8037C83.0674 70.8799 82.9385 70.9707 82.8271 71.0762C82.7158 71.1816 82.6221 71.2871 82.5459 71.3926C82.4814 71.5801 82.4404 71.7881 82.4229 72.0166C82.4111 72.2393 82.4053 72.4824 82.4053 72.7461V74.9082C82.4053 75.0781 82.4287 75.207 82.4756 75.2949C82.5225 75.3828 82.5957 75.4473 82.6953 75.4883C82.7949 75.5293 82.9238 75.5557 83.082 75.5674C83.2402 75.5732 83.4307 75.5762 83.6533 75.5762V77C83.4365 77 83.2285 77 83.0293 77C82.8301 77 82.6221 77 82.4053 77C82.1943 76.9941 81.9688 76.9912 81.7285 76.9912C81.4941 76.9854 81.2334 76.9824 80.9463 76.9824C80.46 76.9824 80.0264 76.9854 79.6455 76.9912C79.2705 76.9971 78.8955 77 78.5205 77Z" fill="#6A6A6B"/>
<path d="M53 17C58 17 62.25 18.75 65.75 22.25C69.25 25.75 71 30 71 35C71 40 69.25 44.25 65.75 47.75C62.25 51.25 58 53 53 53C48.0625 53 43.8125 51.25 40.25 47.75L43.1562 44.8438C45.8437 47.5938 49.125 48.9688 53 48.9688C56.875 48.9688 60.1719 47.6094 62.8906 44.8906C65.6094 42.1719 66.9688 38.875 66.9688 35C66.9688 31.125 65.6094 27.8281 62.8906 25.1094C60.1719 22.3906 56.875 21.0312 53 21.0312C49.125 21.0312 45.8281 22.3906 43.1094 25.1094C40.3906 27.8281 39.0312 31.125 39.0312 35H45.0312L36.875 43.0625L36.7812 42.7812L29 35H35C35 30 36.75 25.75 40.25 22.25C43.75 18.75 48 17 53 17ZM51.0312 27.0312H54.0312V35.4688L60.9688 39.6875L59.5625 42.125L51.0312 36.9688V27.0312Z" fill="#19B07B"/>
</svg>
