<svg width="100" height="100" viewBox="0 0 100 100" fill="none" xmlns="http://www.w3.org/2000/svg">
<path d="M25.8477 65.5039C26.416 65.5098 26.958 65.5127 27.4736 65.5127C27.6904 65.5127 27.9131 65.5156 28.1416 65.5215C28.376 65.5215 28.6016 65.5215 28.8184 65.5215C29.041 65.5215 29.249 65.5215 29.4424 65.5215C29.6357 65.5215 29.8027 65.5215 29.9434 65.5215H33.2656C33.5176 65.5215 33.7812 65.5215 34.0566 65.5215C34.3379 65.5156 34.6162 65.5127 34.8916 65.5127C35.1729 65.5127 35.4482 65.5127 35.7178 65.5127C35.9873 65.5068 36.2422 65.5039 36.4824 65.5039V69.3887H35.0938V68.2021C35.0938 67.9971 35.082 67.833 35.0586 67.71C35.0352 67.5811 34.9766 67.4814 34.8828 67.4111C34.7891 67.3408 34.6484 67.2939 34.4609 67.2705C34.2793 67.2471 34.0303 67.2354 33.7139 67.2354H32.6152V74.7588C32.6152 74.8232 32.6211 74.8965 32.6328 74.9785C32.6504 75.0547 32.6855 75.1279 32.7383 75.1982C32.7969 75.2627 32.8818 75.3184 32.9932 75.3652C33.1104 75.4121 33.2656 75.4355 33.459 75.4355H33.9512V77C33.7344 77 33.5234 77 33.3184 77C33.1191 77 32.9111 77 32.6943 77C32.4834 76.9941 32.2578 76.9912 32.0176 76.9912C31.7773 76.9854 31.5078 76.9824 31.209 76.9824C31.0039 76.9824 30.7812 76.9854 30.541 76.9912C30.3066 76.9912 30.0635 76.9912 29.8115 76.9912C29.5654 76.9912 29.3223 76.9941 29.082 77C28.8418 77 28.6162 77 28.4053 77V75.4355H28.8975C29.1143 75.4355 29.2783 75.4062 29.3896 75.3477C29.5068 75.2891 29.5918 75.2129 29.6445 75.1191C29.6973 75.0254 29.7266 74.9199 29.7324 74.8027C29.7383 74.6797 29.7412 74.5596 29.7412 74.4424V67.2354H28.335C28.0947 67.2354 27.9014 67.2471 27.7549 67.2705C27.6084 67.2881 27.4941 67.3232 27.4121 67.376C27.3359 67.4287 27.2832 67.499 27.2539 67.5869C27.2305 67.6748 27.2188 67.7861 27.2188 67.9209C27.2188 67.9854 27.2188 68.082 27.2188 68.2109C27.2188 68.334 27.2188 68.4688 27.2188 68.6152C27.2188 68.7559 27.2188 68.8994 27.2188 69.0459C27.2246 69.1865 27.2275 69.3008 27.2275 69.3887H25.8477V65.5039ZM45.2803 73.3525H39.3037C39.3096 74.1904 39.5146 74.8086 39.9189 75.207C40.3232 75.5996 40.877 75.7959 41.5801 75.7959C42.0781 75.7959 42.4971 75.6816 42.8369 75.4531C43.1826 75.2246 43.4287 74.9492 43.5752 74.627L45.5791 74.7852C45.3447 75.5879 44.8613 76.1914 44.1289 76.5957C43.4023 77 42.4854 77.2021 41.3779 77.2021C40.5693 77.2021 39.8662 77.0967 39.2686 76.8857C38.6709 76.6748 38.1729 76.3906 37.7744 76.0332C37.376 75.6758 37.0771 75.2393 36.8779 74.7236C36.6846 74.208 36.5879 73.6455 36.5879 73.0361C36.5879 72.3857 36.6963 71.7969 36.9131 71.2695C37.1357 70.7422 37.4492 70.2939 37.8535 69.9248C38.2578 69.5557 38.7441 69.2715 39.3125 69.0723C39.8809 68.873 40.5137 68.7734 41.2109 68.7734C41.8848 68.7734 42.5 68.8701 43.0566 69.0635C43.6133 69.251 44.0908 69.5352 44.4893 69.916C44.8877 70.291 45.1982 70.7598 45.4209 71.3223C45.6436 71.8848 45.7549 72.5381 45.7549 73.2822L45.2803 73.3525ZM43.2412 72.21V72.1484C43.2412 72.1309 43.2383 72.1133 43.2324 72.0957C43.2324 72.0723 43.2324 72.0488 43.2324 72.0254C43.1797 71.4043 42.9863 70.9238 42.6523 70.584C42.3184 70.2383 41.8789 70.0654 41.334 70.0654C40.7305 70.0654 40.2559 70.2559 39.9102 70.6367C39.5703 71.0176 39.377 71.5391 39.3301 72.2012H43.2412V72.21ZM55.6514 74.6094C55.6514 74.8496 55.6572 75.0371 55.6689 75.1719C55.6865 75.3066 55.7188 75.4062 55.7656 75.4707C55.8184 75.5293 55.8887 75.5645 55.9766 75.5762C56.0645 75.5879 56.1846 75.5938 56.3369 75.5938H56.7588V77C56.7119 77 56.6094 77 56.4512 77C56.293 77 56.1201 77 55.9326 77C55.7451 76.9941 55.5635 76.9912 55.3877 76.9912C55.2178 76.9912 55.0977 76.9912 55.0273 76.9912C54.8633 76.9912 54.7139 76.9941 54.5791 77C54.4443 77 54.3125 77 54.1836 77C54.0605 77.0059 53.9316 77.0088 53.7969 77.0088C53.6621 77.0146 53.5127 77.0205 53.3486 77.0264L53.085 75.8838C52.9561 76.0889 52.8037 76.2734 52.6279 76.4375C52.4521 76.5957 52.2412 76.7334 51.9951 76.8506C51.749 76.9619 51.4648 77.0469 51.1426 77.1055C50.8203 77.1699 50.4512 77.2021 50.0352 77.2021C49.5312 77.2021 49.0859 77.1348 48.6992 77C48.3184 76.8711 47.999 76.6953 47.7412 76.4727C47.4893 76.25 47.2988 75.9893 47.1699 75.6904C47.041 75.3857 46.9766 75.0635 46.9766 74.7236C46.9766 74.3311 47.0615 73.9766 47.2314 73.6602C47.4072 73.3438 47.6562 73.0771 47.9785 72.8604C48.3066 72.6377 48.7021 72.4678 49.165 72.3506C49.6279 72.2275 50.1523 72.166 50.7383 72.166C51.1191 72.166 51.5 72.1895 51.8809 72.2363C52.2617 72.2773 52.6221 72.3418 52.9619 72.4297V71.4189C52.9619 70.9736 52.8066 70.6191 52.4961 70.3555C52.1914 70.0918 51.7168 69.96 51.0723 69.96C50.0059 69.96 49.3701 70.3848 49.165 71.2344L47.7148 71.1025L47.7676 69.3447C47.8555 69.3037 47.999 69.251 48.1982 69.1865C48.3975 69.1221 48.6494 69.0605 48.9541 69.002C49.2588 68.9375 49.6104 68.8848 50.0088 68.8438C50.4072 68.7969 50.8496 68.7734 51.3359 68.7734C52.0977 68.7734 52.751 68.8291 53.2959 68.9404C53.8408 69.0459 54.2861 69.2158 54.6318 69.4502C54.9834 69.6846 55.2412 69.9893 55.4053 70.3643C55.5693 70.7334 55.6514 71.1846 55.6514 71.7178V74.6094ZM51.5029 73.0801C50.8877 73.0801 50.4102 73.2061 50.0703 73.458C49.7305 73.71 49.5605 74.0645 49.5605 74.5215C49.5605 74.7383 49.5986 74.9141 49.6748 75.0488C49.751 75.1777 49.8535 75.3037 49.9824 75.4268C50.1172 75.5439 50.2754 75.6348 50.457 75.6992C50.6445 75.7637 50.8438 75.7959 51.0547 75.7959C51.3418 75.7959 51.6025 75.7578 51.8369 75.6816C52.0713 75.6055 52.2705 75.4941 52.4346 75.3477C52.6045 75.1953 52.7334 75.0312 52.8213 74.8555C52.915 74.6797 52.9619 74.4541 52.9619 74.1787V73.2734C52.7158 73.2031 52.4727 73.1533 52.2324 73.124C51.9922 73.0947 51.749 73.0801 51.5029 73.0801ZM64.5107 72.5352C64.5107 72.1953 64.4873 71.8994 64.4404 71.6475C64.3994 71.3955 64.3291 71.1875 64.2295 71.0234C64.1299 70.8535 63.9922 70.7275 63.8164 70.6455C63.6465 70.5576 63.4355 70.5137 63.1836 70.5137C62.8203 70.5137 62.5039 70.5781 62.2344 70.707C61.9648 70.8301 61.7158 71.041 61.4873 71.3398C61.4229 71.4395 61.3701 71.6152 61.3291 71.8672C61.2881 72.1191 61.2676 72.4385 61.2676 72.8252V74.8555C61.2676 75.0312 61.2881 75.1689 61.3291 75.2686C61.3701 75.3623 61.4375 75.4326 61.5312 75.4795C61.625 75.5205 61.748 75.5469 61.9004 75.5586C62.0527 75.5703 62.2402 75.5762 62.4629 75.5762V77C62.2461 77 62.0381 77 61.8389 77C61.6396 77 61.4346 77 61.2236 77C61.0127 76.9941 60.79 76.9912 60.5557 76.9912C60.3213 76.9854 60.0635 76.9824 59.7822 76.9824C59.542 76.9824 59.3193 76.9854 59.1143 76.9912C58.915 76.9912 58.7217 76.9912 58.5342 76.9912C58.3525 76.9912 58.1709 76.9941 57.9893 77C57.8135 77 57.6348 77 57.4531 77V75.5762C57.7051 75.5762 57.9043 75.5674 58.0508 75.5498C58.2031 75.5322 58.3174 75.5 58.3936 75.4531C58.4756 75.4004 58.5283 75.3301 58.5518 75.2422C58.5752 75.1484 58.5869 75.0283 58.5869 74.8818V70.9268C58.5869 70.6982 58.4961 70.5576 58.3145 70.5049C58.1328 70.4521 57.8604 70.4258 57.4971 70.4258V69.0195C57.667 69.0195 57.8281 69.0225 57.9805 69.0283C58.1387 69.0342 58.2998 69.0371 58.4639 69.0371C58.9209 69.0371 59.3691 69.0342 59.8086 69.0283C60.248 69.0166 60.7051 69.0049 61.1797 68.9932V70.3818C61.332 70.1709 61.5166 69.9746 61.7334 69.793C61.9502 69.6055 62.1963 69.4414 62.4717 69.3008C62.7529 69.1602 63.0576 69.0488 63.3857 68.9668C63.7197 68.8848 64.0771 68.8438 64.458 68.8438C65.0791 68.8438 65.6064 68.9756 66.04 69.2393C66.4736 69.5029 66.8018 69.9014 67.0244 70.4346C67.4756 69.9307 67.9795 69.541 68.5361 69.2656C69.0928 68.9844 69.6904 68.8438 70.3291 68.8438C70.8623 68.8438 71.3047 68.9287 71.6562 69.0986C72.0137 69.2627 72.3008 69.5059 72.5176 69.8281C72.7344 70.1445 72.8867 70.54 72.9746 71.0146C73.0684 71.4834 73.1152 72.0254 73.1152 72.6406V75.0488C73.1152 75.1777 73.1328 75.2773 73.168 75.3477C73.209 75.418 73.2705 75.4707 73.3525 75.5059C73.4404 75.5352 73.5518 75.5557 73.6865 75.5674C73.8271 75.5732 73.9971 75.5762 74.1963 75.5762V77C73.8213 77 73.4492 76.9971 73.0801 76.9912C72.7109 76.9854 72.2949 76.9824 71.832 76.9824C71.375 76.9824 70.9502 76.9854 70.5576 76.9912C70.1709 76.9971 69.7754 77 69.3711 77V75.5762C69.5762 75.5762 69.7461 75.5645 69.8809 75.541C70.0215 75.5117 70.1299 75.4678 70.2061 75.4092C70.2881 75.3506 70.3438 75.2686 70.373 75.1631C70.4082 75.0576 70.4258 74.9258 70.4258 74.7676V72.3418C70.4258 71.7441 70.3291 71.29 70.1357 70.9795C69.9424 70.6689 69.5908 70.5137 69.0811 70.5137C68.6768 70.5137 68.3369 70.5957 68.0615 70.7598C67.792 70.918 67.5635 71.123 67.376 71.375C67.3115 71.5566 67.2646 71.7559 67.2354 71.9727C67.2119 72.1895 67.2002 72.4268 67.2002 72.6846V75.0137C67.2002 75.1367 67.2178 75.2363 67.2529 75.3125C67.2881 75.3828 67.3438 75.4385 67.4199 75.4795C67.502 75.5205 67.6104 75.5469 67.7451 75.5586C67.8799 75.5703 68.0469 75.5762 68.2461 75.5762V77C68.0527 77 67.8623 77 67.6748 77C67.4932 77 67.3057 77 67.1123 77C66.9189 76.9941 66.7139 76.9912 66.4971 76.9912C66.2803 76.9854 66.04 76.9824 65.7764 76.9824C65.5479 76.9824 65.334 76.9854 65.1348 76.9912C64.9355 76.9912 64.7451 76.9912 64.5635 76.9912C64.3877 76.9912 64.2119 76.9941 64.0361 77C63.8662 77 63.6934 77 63.5176 77V75.5762C63.9043 75.5703 64.165 75.5059 64.2998 75.3828C64.4404 75.2598 64.5107 75.0752 64.5107 74.8291V72.5352Z" fill="#6A6A6B"/>
<path d="M50 33.5C51.9891 33.5 53.8968 34.2902 55.3033 35.6967C56.7098 37.1032 57.5 39.0109 57.5 41V50H42.5V41C42.5 39.0109 43.2902 37.1032 44.6967 35.6967C46.1032 34.2902 48.0109 33.5 50 33.5ZM39.932 38.009C39.6933 38.8142 39.5523 39.6451 39.512 40.484L39.5 41V50H35V43.25C34.9997 41.9564 35.477 40.7082 36.3405 39.7448C37.2039 38.7815 38.3925 38.1708 39.6785 38.03L39.9335 38.009H39.932ZM60.068 38.009C61.4029 38.0904 62.6564 38.6779 63.5729 39.6519C64.4894 40.6258 64.9998 41.9127 65 43.25V50H60.5V41C60.5 39.9605 60.35 38.957 60.068 38.009ZM40.25 29C41.2446 29 42.1984 29.3951 42.9017 30.0983C43.6049 30.8016 44 31.7554 44 32.75C44 33.7446 43.6049 34.6984 42.9017 35.4017C42.1984 36.1049 41.2446 36.5 40.25 36.5C39.2554 36.5 38.3016 36.1049 37.5983 35.4017C36.8951 34.6984 36.5 33.7446 36.5 32.75C36.5 31.7554 36.8951 30.8016 37.5983 30.0983C38.3016 29.3951 39.2554 29 40.25 29V29ZM59.75 29C60.7446 29 61.6984 29.3951 62.4017 30.0983C63.1049 30.8016 63.5 31.7554 63.5 32.75C63.5 33.7446 63.1049 34.6984 62.4017 35.4017C61.6984 36.1049 60.7446 36.5 59.75 36.5C58.7554 36.5 57.8016 36.1049 57.0983 35.4017C56.3951 34.6984 56 33.7446 56 32.75C56 31.7554 56.3951 30.8016 57.0983 30.0983C57.8016 29.3951 58.7554 29 59.75 29V29ZM50 20C51.5913 20 53.1174 20.6321 54.2426 21.7574C55.3679 22.8826 56 24.4087 56 26C56 27.5913 55.3679 29.1174 54.2426 30.2426C53.1174 31.3679 51.5913 32 50 32C48.4087 32 46.8826 31.3679 45.7574 30.2426C44.6321 29.1174 44 27.5913 44 26C44 24.4087 44.6321 22.8826 45.7574 21.7574C46.8826 20.6321 48.4087 20 50 20V20Z" fill="#19B07B"/>
</svg>
