<svg width="100" height="100" viewBox="0 0 100 100" fill="none" xmlns="http://www.w3.org/2000/svg">
<path d="M39.9375 73.8184C39.9902 74.1113 40.04 74.3662 40.0869 74.583C40.1396 74.7939 40.1982 74.9697 40.2627 75.1104C40.333 75.251 40.415 75.3564 40.5088 75.4268C40.6084 75.4912 40.7285 75.5234 40.8691 75.5234C41.0742 75.5234 41.2295 75.4648 41.335 75.3477C41.4404 75.2305 41.4932 75.0312 41.4932 74.75L42.5127 74.627C42.5127 74.6328 42.5127 74.6504 42.5127 74.6797C42.5127 74.7031 42.5098 74.7324 42.5039 74.7676C42.5039 74.7969 42.5039 74.8262 42.5039 74.8555C42.5039 74.8789 42.5039 74.8936 42.5039 74.8994C42.4922 75.3096 42.4277 75.6611 42.3105 75.9541C42.1992 76.2471 42.0381 76.4902 41.8271 76.6836C41.6162 76.8711 41.3613 77.0088 41.0625 77.0967C40.7695 77.1846 40.4355 77.2285 40.0605 77.2285C39.6094 77.2285 39.2168 77.1641 38.8828 77.0352C38.5488 76.9062 38.2617 76.7129 38.0215 76.4551C37.7812 76.1973 37.582 75.875 37.4238 75.4883C37.2656 75.0957 37.1367 74.6357 37.0371 74.1084C36.9492 73.6396 36.8438 73.25 36.7207 72.9395C36.6035 72.6289 36.4717 72.3711 36.3252 72.166C36.167 72.0371 35.9766 71.9521 35.7539 71.9111C35.5312 71.8643 35.2559 71.8408 34.9277 71.8408H34.1631L34.1543 74.8027C34.1543 74.9375 34.166 75.0488 34.1895 75.1367C34.2188 75.2188 34.2656 75.2832 34.3301 75.3301C34.3945 75.3711 34.4824 75.4004 34.5938 75.418C34.7051 75.4297 34.8486 75.4355 35.0244 75.4355H35.4111V77C35.1943 77 34.9775 77 34.7607 77C34.5498 77 34.333 77 34.1104 77C33.8877 76.9941 33.6504 76.9912 33.3984 76.9912C33.1523 76.9854 32.8857 76.9824 32.5986 76.9824C32.3174 76.9824 32.0596 76.9854 31.8252 76.9912C31.5967 76.9912 31.3799 76.9912 31.1748 76.9912C30.9697 76.9912 30.7705 76.9941 30.5771 77C30.3896 77 30.1963 77 29.9971 77V75.4355H30.2783C30.5303 75.4355 30.7236 75.418 30.8584 75.3828C30.999 75.3418 31.0986 75.2832 31.1572 75.207C31.2217 75.1309 31.2568 75.0371 31.2627 74.9258C31.2744 74.8145 31.2803 74.6855 31.2803 74.5391V67.9736C31.2803 67.8096 31.2715 67.6719 31.2539 67.5605C31.2422 67.4434 31.2012 67.3496 31.1309 67.2793C31.0664 67.2031 30.9639 67.1504 30.8232 67.1211C30.6826 67.0859 30.4863 67.0684 30.2344 67.0684H29.9971V65.5039H35.6133C36.041 65.5039 36.4629 65.5186 36.8789 65.5479C37.3008 65.5771 37.6992 65.6357 38.0742 65.7236C38.4551 65.8057 38.8066 65.9199 39.1289 66.0664C39.457 66.2129 39.7383 66.4033 39.9727 66.6377C40.2129 66.8721 40.4004 67.1562 40.5352 67.4902C40.6699 67.8242 40.7373 68.2168 40.7373 68.668C40.7373 68.9844 40.6846 69.2861 40.5791 69.5732C40.4736 69.8545 40.3184 70.1094 40.1133 70.3379C39.9141 70.5664 39.668 70.7627 39.375 70.9268C39.0879 71.0908 38.7598 71.2139 38.3906 71.2959C38.5664 71.3779 38.7334 71.4805 38.8916 71.6035C39.0557 71.7266 39.2051 71.8848 39.3398 72.0781C39.4746 72.2715 39.5918 72.5088 39.6914 72.79C39.7969 73.0713 39.8789 73.4141 39.9375 73.8184ZM34.1543 70.5664H35.5166C35.9092 70.5664 36.249 70.54 36.5361 70.4873C36.8291 70.4287 37.0693 70.332 37.2568 70.1973C37.4443 70.0625 37.585 69.8867 37.6787 69.6699C37.7725 69.4531 37.8193 69.1807 37.8193 68.8525C37.8193 68.5068 37.7637 68.2227 37.6523 68C37.541 67.7715 37.377 67.5928 37.1602 67.4639C36.9492 67.3291 36.6826 67.2383 36.3604 67.1914C36.0439 67.1387 35.6748 67.1123 35.2529 67.1123H34.1543V70.5664ZM47.8564 68.7734C48.5068 68.7734 49.125 68.8643 49.7109 69.0459C50.2969 69.2275 50.8096 69.4971 51.249 69.8545C51.6885 70.2119 52.0371 70.6572 52.2949 71.1904C52.5527 71.7178 52.6816 72.3271 52.6816 73.0186C52.6816 73.6924 52.5557 74.293 52.3037 74.8203C52.0518 75.3477 51.709 75.7812 51.2754 76.1211C50.8418 76.4609 50.332 76.7275 49.7461 76.9209C49.1602 77.1084 48.5303 77.2021 47.8564 77.2021C47.1768 77.2021 46.5439 77.1084 45.958 76.9209C45.3721 76.7334 44.8594 76.4697 44.4199 76.1299C43.9863 75.79 43.6436 75.3564 43.3916 74.8291C43.1455 74.3018 43.0225 73.6982 43.0225 73.0186C43.0225 72.3506 43.1455 71.7529 43.3916 71.2256C43.6377 70.6982 43.9775 70.2529 44.4111 69.8896C44.8447 69.5264 45.3545 69.251 45.9404 69.0635C46.5322 68.8701 47.1709 68.7734 47.8564 68.7734ZM47.8652 70.2236C47.1973 70.2236 46.6816 70.4697 46.3184 70.9619C45.9551 71.4541 45.7734 72.1367 45.7734 73.0098C45.7734 73.8887 45.9521 74.5742 46.3096 75.0664C46.667 75.5527 47.1768 75.7959 47.8389 75.7959C48.167 75.7959 48.46 75.7314 48.7178 75.6025C48.9756 75.4736 49.1953 75.2891 49.377 75.0488C49.5586 74.8086 49.6963 74.5127 49.79 74.1611C49.8838 73.8096 49.9307 73.4141 49.9307 72.9746C49.9307 72.5469 49.8838 72.1631 49.79 71.8232C49.6963 71.4834 49.5615 71.1963 49.3857 70.9619C49.21 70.7217 48.9932 70.54 48.7354 70.417C48.4775 70.2881 48.1875 70.2236 47.8652 70.2236ZM57.5771 74.6709C57.5771 74.8584 57.5918 75.0107 57.6211 75.1279C57.6504 75.2451 57.7031 75.3359 57.7793 75.4004C57.8613 75.4648 57.9697 75.5117 58.1045 75.541C58.2451 75.5645 58.4238 75.5762 58.6406 75.5762V77C58.4414 77 58.2451 77 58.0518 77C57.8584 77 57.6592 77 57.4541 77C57.2549 76.9941 57.0439 76.9912 56.8213 76.9912C56.5986 76.9854 56.3613 76.9824 56.1094 76.9824C55.6406 76.9824 55.2275 76.9854 54.8701 76.9912C54.5127 76.9971 54.1523 77 53.7891 77V75.5762C54.0645 75.5762 54.2754 75.5586 54.4219 75.5234C54.5742 75.4883 54.6855 75.4297 54.7559 75.3477C54.8262 75.2598 54.8672 75.1455 54.8789 75.0049C54.8906 74.8643 54.8965 74.6885 54.8965 74.4775V67.5254C54.8965 67.3848 54.873 67.2734 54.8262 67.1914C54.7852 67.1094 54.7178 67.0479 54.624 67.0068C54.5361 66.9658 54.4248 66.9395 54.29 66.9277C54.1611 66.916 54.0088 66.9102 53.833 66.9102V65.5039C53.9268 65.5039 54.0703 65.5039 54.2637 65.5039C54.457 65.5039 54.6592 65.5039 54.8701 65.5039C55.0811 65.498 55.2744 65.4951 55.4502 65.4951C55.626 65.4893 55.7432 65.4863 55.8018 65.4863C56.0947 65.4863 56.3848 65.4834 56.6719 65.4775C56.959 65.4717 57.2607 65.4629 57.5771 65.4512V74.6709ZM68.4756 73.3525H62.499C62.5049 74.1904 62.71 74.8086 63.1143 75.207C63.5186 75.5996 64.0723 75.7959 64.7754 75.7959C65.2734 75.7959 65.6924 75.6816 66.0322 75.4531C66.3779 75.2246 66.624 74.9492 66.7705 74.627L68.7744 74.7852C68.54 75.5879 68.0566 76.1914 67.3242 76.5957C66.5977 77 65.6807 77.2021 64.5732 77.2021C63.7646 77.2021 63.0615 77.0967 62.4639 76.8857C61.8662 76.6748 61.3682 76.3906 60.9697 76.0332C60.5713 75.6758 60.2725 75.2393 60.0732 74.7236C59.8799 74.208 59.7832 73.6455 59.7832 73.0361C59.7832 72.3857 59.8916 71.7969 60.1084 71.2695C60.3311 70.7422 60.6445 70.2939 61.0488 69.9248C61.4531 69.5557 61.9395 69.2715 62.5078 69.0723C63.0762 68.873 63.709 68.7734 64.4062 68.7734C65.0801 68.7734 65.6953 68.8701 66.252 69.0635C66.8086 69.251 67.2861 69.5352 67.6846 69.916C68.083 70.291 68.3936 70.7598 68.6162 71.3223C68.8389 71.8848 68.9502 72.5381 68.9502 73.2822L68.4756 73.3525ZM66.4365 72.21V72.1484C66.4365 72.1309 66.4336 72.1133 66.4277 72.0957C66.4277 72.0723 66.4277 72.0488 66.4277 72.0254C66.375 71.4043 66.1816 70.9238 65.8477 70.584C65.5137 70.2383 65.0742 70.0654 64.5293 70.0654C63.9258 70.0654 63.4512 70.2559 63.1055 70.6367C62.7656 71.0176 62.5723 71.5391 62.5254 72.2012H66.4365V72.21Z" fill="#6A6A6B"/>
<g clip-path="url(#clip0)">
<path d="M49 19.2725C46.5455 19.2725 44.6278 20.1759 43.2472 21.9827C41.8665 23.7895 41.1761 26.0992 41.1761 28.9117C41.1591 32.406 42.2841 35.1759 44.5511 37.2213C44.8409 37.4941 44.9432 37.8435 44.858 38.2696L44.2699 39.4969C44.0824 39.906 43.8054 40.2256 43.4389 40.4557C43.0724 40.6858 42.3011 41.0139 41.125 41.4401C41.0739 41.4571 39.9957 41.8066 37.8906 42.4884C35.7855 43.1702 34.6648 43.5452 34.5284 43.6134C33.0966 44.21 32.1591 44.8321 31.7159 45.4798C31.2386 46.5537 31 49.2725 31 53.6361H67C67 49.2725 66.7614 46.5537 66.2841 45.4798C65.8409 44.8321 64.9034 44.21 63.4716 43.6134C63.3352 43.5452 62.2145 43.1702 60.1094 42.4884C58.0043 41.8066 56.9261 41.4571 56.875 41.4401C55.6989 41.0139 54.9276 40.6858 54.5611 40.4557C54.1946 40.2256 53.9176 39.906 53.7301 39.4969L53.142 38.2696C53.0568 37.8435 53.1591 37.4941 53.4489 37.2213C55.7159 35.1759 56.8409 32.406 56.8239 28.9117C56.8239 26.0992 56.1335 23.7895 54.7528 21.9827C53.3722 20.1759 51.4545 19.2725 49 19.2725Z" fill="#19B07B"/>
</g>
<defs>
<clipPath id="clip0">
<rect width="36" height="37.6364" fill="white" transform="translate(31 16)"/>
</clipPath>
</defs>
</svg>
