<svg width="100" height="100" viewBox="0 0 100 100" fill="none" xmlns="http://www.w3.org/2000/svg">
<path d="M26.9727 65.5039C27.541 65.5098 28.083 65.5127 28.5986 65.5127C28.8154 65.5127 29.0381 65.5156 29.2666 65.5215C29.501 65.5215 29.7266 65.5215 29.9434 65.5215C30.166 65.5215 30.374 65.5215 30.5674 65.5215C30.7607 65.5215 30.9277 65.5215 31.0684 65.5215H34.3906C34.6426 65.5215 34.9062 65.5215 35.1816 65.5215C35.4629 65.5156 35.7412 65.5127 36.0166 65.5127C36.2979 65.5127 36.5732 65.5127 36.8428 65.5127C37.1123 65.5068 37.3672 65.5039 37.6074 65.5039V69.3887H36.2188V68.2021C36.2188 67.9971 36.207 67.833 36.1836 67.71C36.1602 67.5811 36.1016 67.4814 36.0078 67.4111C35.9141 67.3408 35.7734 67.2939 35.5859 67.2705C35.4043 67.2471 35.1553 67.2354 34.8389 67.2354H33.7402V74.7588C33.7402 74.8232 33.7461 74.8965 33.7578 74.9785C33.7754 75.0547 33.8105 75.1279 33.8633 75.1982C33.9219 75.2627 34.0068 75.3184 34.1182 75.3652C34.2354 75.4121 34.3906 75.4355 34.584 75.4355H35.0762V77C34.8594 77 34.6484 77 34.4434 77C34.2441 77 34.0361 77 33.8193 77C33.6084 76.9941 33.3828 76.9912 33.1426 76.9912C32.9023 76.9854 32.6328 76.9824 32.334 76.9824C32.1289 76.9824 31.9062 76.9854 31.666 76.9912C31.4316 76.9912 31.1885 76.9912 30.9365 76.9912C30.6904 76.9912 30.4473 76.9941 30.207 77C29.9668 77 29.7412 77 29.5303 77V75.4355H30.0225C30.2393 75.4355 30.4033 75.4062 30.5146 75.3477C30.6318 75.2891 30.7168 75.2129 30.7695 75.1191C30.8223 75.0254 30.8516 74.9199 30.8574 74.8027C30.8633 74.6797 30.8662 74.5596 30.8662 74.4424V67.2354H29.46C29.2197 67.2354 29.0264 67.2471 28.8799 67.2705C28.7334 67.2881 28.6191 67.3232 28.5371 67.376C28.4609 67.4287 28.4082 67.499 28.3789 67.5869C28.3555 67.6748 28.3438 67.7861 28.3438 67.9209C28.3438 67.9854 28.3438 68.082 28.3438 68.2109C28.3438 68.334 28.3438 68.4688 28.3438 68.6152C28.3438 68.7559 28.3438 68.8994 28.3438 69.0459C28.3496 69.1865 28.3525 69.3008 28.3525 69.3887H26.9727V65.5039ZM42.1865 68.7734C42.8369 68.7734 43.4551 68.8643 44.041 69.0459C44.627 69.2275 45.1396 69.4971 45.5791 69.8545C46.0186 70.2119 46.3672 70.6572 46.625 71.1904C46.8828 71.7178 47.0117 72.3271 47.0117 73.0186C47.0117 73.6924 46.8857 74.293 46.6338 74.8203C46.3818 75.3477 46.0391 75.7812 45.6055 76.1211C45.1719 76.4609 44.6621 76.7275 44.0762 76.9209C43.4902 77.1084 42.8604 77.2021 42.1865 77.2021C41.5068 77.2021 40.874 77.1084 40.2881 76.9209C39.7021 76.7334 39.1895 76.4697 38.75 76.1299C38.3164 75.79 37.9736 75.3564 37.7217 74.8291C37.4756 74.3018 37.3525 73.6982 37.3525 73.0186C37.3525 72.3506 37.4756 71.7529 37.7217 71.2256C37.9678 70.6982 38.3076 70.2529 38.7412 69.8896C39.1748 69.5264 39.6846 69.251 40.2705 69.0635C40.8623 68.8701 41.501 68.7734 42.1865 68.7734ZM42.1953 70.2236C41.5273 70.2236 41.0117 70.4697 40.6484 70.9619C40.2852 71.4541 40.1035 72.1367 40.1035 73.0098C40.1035 73.8887 40.2822 74.5742 40.6396 75.0664C40.9971 75.5527 41.5068 75.7959 42.1689 75.7959C42.4971 75.7959 42.79 75.7314 43.0479 75.6025C43.3057 75.4736 43.5254 75.2891 43.707 75.0488C43.8887 74.8086 44.0264 74.5127 44.1201 74.1611C44.2139 73.8096 44.2607 73.4141 44.2607 72.9746C44.2607 72.5469 44.2139 72.1631 44.1201 71.8232C44.0264 71.4834 43.8916 71.1963 43.7158 70.9619C43.54 70.7217 43.3232 70.54 43.0654 70.417C42.8076 70.2881 42.5176 70.2236 42.1953 70.2236ZM53.2256 68.7734C53.876 68.7734 54.4941 68.8643 55.0801 69.0459C55.666 69.2275 56.1787 69.4971 56.6182 69.8545C57.0576 70.2119 57.4062 70.6572 57.6641 71.1904C57.9219 71.7178 58.0508 72.3271 58.0508 73.0186C58.0508 73.6924 57.9248 74.293 57.6729 74.8203C57.4209 75.3477 57.0781 75.7812 56.6445 76.1211C56.2109 76.4609 55.7012 76.7275 55.1152 76.9209C54.5293 77.1084 53.8994 77.2021 53.2256 77.2021C52.5459 77.2021 51.9131 77.1084 51.3271 76.9209C50.7412 76.7334 50.2285 76.4697 49.7891 76.1299C49.3555 75.79 49.0127 75.3564 48.7607 74.8291C48.5146 74.3018 48.3916 73.6982 48.3916 73.0186C48.3916 72.3506 48.5146 71.7529 48.7607 71.2256C49.0068 70.6982 49.3467 70.2529 49.7803 69.8896C50.2139 69.5264 50.7236 69.251 51.3096 69.0635C51.9014 68.8701 52.54 68.7734 53.2256 68.7734ZM53.2344 70.2236C52.5664 70.2236 52.0508 70.4697 51.6875 70.9619C51.3242 71.4541 51.1426 72.1367 51.1426 73.0098C51.1426 73.8887 51.3213 74.5742 51.6787 75.0664C52.0361 75.5527 52.5459 75.7959 53.208 75.7959C53.5361 75.7959 53.8291 75.7314 54.0869 75.6025C54.3447 75.4736 54.5645 75.2891 54.7461 75.0488C54.9277 74.8086 55.0654 74.5127 55.1592 74.1611C55.2529 73.8096 55.2998 73.4141 55.2998 72.9746C55.2998 72.5469 55.2529 72.1631 55.1592 71.8232C55.0654 71.4834 54.9307 71.1963 54.7549 70.9619C54.5791 70.7217 54.3623 70.54 54.1045 70.417C53.8467 70.2881 53.5566 70.2236 53.2344 70.2236ZM62.9463 74.6709C62.9463 74.8584 62.9609 75.0107 62.9902 75.1279C63.0195 75.2451 63.0723 75.3359 63.1484 75.4004C63.2305 75.4648 63.3389 75.5117 63.4736 75.541C63.6143 75.5645 63.793 75.5762 64.0098 75.5762V77C63.8105 77 63.6143 77 63.4209 77C63.2275 77 63.0283 77 62.8232 77C62.624 76.9941 62.4131 76.9912 62.1904 76.9912C61.9678 76.9854 61.7305 76.9824 61.4785 76.9824C61.0098 76.9824 60.5967 76.9854 60.2393 76.9912C59.8818 76.9971 59.5215 77 59.1582 77V75.5762C59.4336 75.5762 59.6445 75.5586 59.791 75.5234C59.9434 75.4883 60.0547 75.4297 60.125 75.3477C60.1953 75.2598 60.2363 75.1455 60.248 75.0049C60.2598 74.8643 60.2656 74.6885 60.2656 74.4775V67.5254C60.2656 67.3848 60.2422 67.2734 60.1953 67.1914C60.1543 67.1094 60.0869 67.0479 59.9932 67.0068C59.9053 66.9658 59.7939 66.9395 59.6592 66.9277C59.5303 66.916 59.3779 66.9102 59.2021 66.9102V65.5039C59.2959 65.5039 59.4395 65.5039 59.6328 65.5039C59.8262 65.5039 60.0283 65.5039 60.2393 65.5039C60.4502 65.498 60.6436 65.4951 60.8193 65.4951C60.9951 65.4893 61.1123 65.4863 61.1709 65.4863C61.4639 65.4863 61.7539 65.4834 62.041 65.4775C62.3281 65.4717 62.6299 65.4629 62.9463 65.4512V74.6709ZM72.3682 71.4365H70.9795C70.8857 71.0088 70.6631 70.6689 70.3115 70.417C69.9658 70.165 69.5059 70.0303 68.9316 70.0127C68.6973 70.0127 68.4951 70.0361 68.3252 70.083C68.1611 70.1299 68.0264 70.1943 67.9209 70.2764C67.8154 70.3525 67.7363 70.4434 67.6836 70.5488C67.6367 70.6484 67.6133 70.7539 67.6133 70.8652C67.6133 71.0059 67.6572 71.1289 67.7451 71.2344C67.833 71.334 67.959 71.4277 68.123 71.5156C68.2871 71.6035 68.4863 71.6885 68.7207 71.7705C68.9609 71.8467 69.2334 71.9287 69.5381 72.0166C70.0537 72.1572 70.5078 72.3066 70.9004 72.4648C71.2988 72.6172 71.6328 72.7959 71.9023 73.001C72.1777 73.2061 72.3857 73.4463 72.5264 73.7217C72.667 73.9912 72.7373 74.3193 72.7373 74.7061C72.7373 75.1455 72.6436 75.5234 72.4561 75.8398C72.2686 76.1504 72.0195 76.4082 71.709 76.6133C71.4043 76.8184 71.0557 76.9678 70.6631 77.0615C70.2705 77.1553 69.8662 77.2021 69.4502 77.2021C68.8525 77.2021 68.3516 77.1289 67.9473 76.9824C67.5488 76.8301 67.2207 76.6016 66.9629 76.2969L66.9277 76.9912C66.6523 76.9912 66.3828 76.9824 66.1191 76.9648C65.8613 76.9473 65.5977 76.9385 65.3281 76.9385V74.4424H66.9189C66.9424 74.7061 67.0127 74.9375 67.1299 75.1367C67.2529 75.3359 67.4082 75.5029 67.5957 75.6377C67.7832 75.7666 67.9971 75.8633 68.2373 75.9277C68.4775 75.9922 68.7324 76.0244 69.002 76.0244C69.4121 76.0244 69.749 75.9482 70.0127 75.7959C70.2764 75.6436 70.4082 75.4355 70.4082 75.1719C70.4082 74.9961 70.335 74.8467 70.1885 74.7236C70.0479 74.5947 69.8574 74.4775 69.6172 74.3721C69.3828 74.2666 69.1104 74.1641 68.7998 74.0645C68.4951 73.9648 68.1787 73.8564 67.8506 73.7393C67.458 73.5986 67.1035 73.4551 66.7871 73.3086C66.4766 73.1621 66.21 72.9951 65.9873 72.8076C65.7705 72.6201 65.6035 72.4004 65.4863 72.1484C65.3691 71.8965 65.3105 71.5947 65.3105 71.2432C65.3105 70.8799 65.3779 70.5518 65.5127 70.2588C65.6533 69.96 65.8555 69.708 66.1191 69.5029C66.3828 69.292 66.708 69.1309 67.0947 69.0195C67.4814 68.9023 67.9209 68.8438 68.4131 68.8438C68.9287 68.8438 69.4092 68.9111 69.8545 69.0459C70.2998 69.1748 70.6514 69.3711 70.9092 69.6348C70.915 69.5996 70.9238 69.5469 70.9355 69.4766C70.9531 69.4004 70.9707 69.3242 70.9883 69.248C71.0117 69.1602 71.0322 69.0635 71.0498 68.958C71.2256 68.9756 71.3955 68.9932 71.5596 69.0107C71.7002 69.0225 71.8438 69.0342 71.9902 69.0459C72.1426 69.0576 72.2686 69.0693 72.3682 69.0811V71.4365Z" fill="#6A6A6B"/>
<path d="M48.4004 32.4004H51.6004V37.6004H48.4004V32.4004Z" fill="#19B07B"/>
<path d="M53 38C53 38.2652 52.8946 38.5196 52.7071 38.7071C52.5196 38.8946 52.2652 39 52 39H48C47.7348 39 47.4804 38.8946 47.2929 38.7071C47.1054 38.5196 47 38.2652 47 38V36H34V45C34 45.5304 34.2107 46.0391 34.5858 46.4142C34.9609 46.7893 35.4696 47 36 47H64C64.5304 47 65.0391 46.7893 65.4142 46.4142C65.7893 46.0391 66 45.5304 66 45V36H53V38Z" fill="#19B07B"/>
<path d="M65.71 29.38L61.62 25.29C61.4338 25.1053 61.1824 25.0011 60.92 25H55.92V23.05C55.9336 22.5246 55.7397 22.0149 55.3804 21.6313C55.0211 21.2476 54.5252 21.0209 54 21H45.84C45.5834 21.0101 45.3313 21.0716 45.0989 21.1808C44.8664 21.2901 44.6582 21.4449 44.4867 21.636C44.3151 21.8272 44.1836 22.0508 44.1 22.2937C44.0164 22.5366 43.9824 22.7937 44 23.05V25H39.08C38.9484 24.9992 38.8179 25.0245 38.6961 25.0742C38.5743 25.124 38.4635 25.1973 38.37 25.29L34.29 29.38C34.1973 29.4734 34.124 29.5843 34.0742 29.7061C34.0245 29.8279 33.9993 29.9584 34 30.09V34H47V32C47 31.7348 47.1054 31.4804 47.2929 31.2929C47.4804 31.1054 47.7348 31 48 31H52C52.2652 31 52.5196 31.1054 52.7071 31.2929C52.8947 31.4804 53 31.7348 53 32V34H66V30.08C65.9989 29.8177 65.8948 29.5663 65.71 29.38V29.38ZM54 25H46V23H54V25Z" fill="#19B07B"/>
</svg>
